<svg width="208" height="80" viewBox="0 0 208 80" fill="none" xmlns="http://www.w3.org/2000/svg">
<g clip-path="url(#clip0_5142_2973)">
<path d="M142.142 66.344C142.113 63.0066 142.088 60.1709 142.058 56.8315C142.037 54.509 142.008 52.187 142.001 49.865C141.996 48.082 142.492 47.6077 144.321 47.5814C145.273 47.5672 146.225 47.5521 147.177 47.5587C148.696 47.5698 149.206 48.0492 149.224 49.5373C149.27 53.2666 149.291 56.4907 149.325 60.2199C149.374 65.7792 149.423 71.3383 149.471 76.8972C149.487 78.8121 149.022 79.2698 147.047 79.3006C145.948 79.3173 144.848 79.2875 143.751 79.3396C143.157 79.3995 142.558 79.2802 142.032 78.9969C141.506 78.7136 141.077 78.2793 140.799 77.7498C137.453 72.2638 134.564 67.3083 131.183 61.8426C130.998 61.5102 130.73 61.2322 130.404 61.0366L130.414 62.1293C130.459 67.2659 130.504 72.4027 130.549 77.5399C130.565 79.512 130.111 79.9474 128.029 79.9752C127.113 79.9878 126.197 80.0167 125.282 79.9878C123.902 79.9443 123.377 79.4351 123.349 78.0896C123.307 76.1175 123.305 74.1489 123.288 72.1789C123.223 64.8255 123.158 57.472 123.093 50.1183C123.076 48.1665 123.482 47.7716 125.51 47.7483C126.719 47.7341 127.93 47.7695 129.136 47.7038C129.694 47.6437 130.257 47.757 130.749 48.0284C131.24 48.2998 131.636 48.7161 131.884 49.2208C135.188 54.8508 138.024 59.958 141.357 65.5724C141.53 65.8636 141.723 66.1443 141.906 66.432L142.142 66.344Z" fill="#222745"/>
<path d="M50.4746 63.1825C50.6125 57.8842 51.453 53.4075 55.4293 50.0353C59.5202 46.5639 64.4036 45.6436 69.684 46.4243C77.4992 47.5798 82.3153 53.4914 83.0209 60.4706C83.5188 65.3922 82.6471 69.9422 79.3723 73.8636C76.5904 77.1949 72.8421 78.8757 68.4633 79.2509C64.6627 79.5766 61.0031 79.0679 57.688 77.1201C53.2985 74.5412 51.5069 70.6582 50.7619 65.8539C50.6028 64.8486 50.5408 63.8297 50.4746 63.1825ZM58.8981 67.65C60.245 71.1295 62.4025 73.1941 66.3323 73.2942C70.0879 73.3898 72.8856 71.6812 74.4603 68.3893C75.359 66.619 75.8196 64.6585 75.8036 62.6727C75.7876 60.6869 75.2954 58.7341 74.3683 56.9785C72.8208 53.9096 70.196 52.2359 66.5757 52.2485C62.9555 52.2612 60.9193 53.9678 59.2875 57.0018C58.3253 58.7898 57.0496 61.7929 58.8981 67.65Z" fill="#222745"/>
<path d="M164.483 46.2808C167.167 46.5761 169.396 46.6272 172.02 47.1864C175.182 47.7921 178.05 49.4433 180.164 51.8753C182.278 54.3073 183.515 57.3794 183.677 60.5992C183.904 64.0882 183.569 67.4837 181.945 70.674C179.763 74.962 176.129 77.4393 171.332 78.3737C170.066 78.6525 168.773 78.7914 167.477 78.7879C164.365 78.7782 161.252 78.6569 158.14 78.5477C156.589 78.4936 156.038 77.9621 156.077 76.5432C156.335 67.0803 156.606 57.6178 156.89 48.1558C156.932 46.7516 157.475 46.295 158.968 46.3233C160.8 46.3577 162.63 46.4244 164.461 46.475L164.483 46.2808ZM163.445 72.7169C165.503 72.686 166.988 72.8084 168.922 72.5621C170.332 72.4307 171.678 71.9081 172.807 71.053C173.937 70.198 174.806 69.0444 175.317 67.722C176.538 64.8013 176.695 61.5435 175.759 58.5189C174.951 55.7853 173.151 53.7894 170.295 53.0855C168.135 52.5531 166.344 52.5581 164.029 52.3023L163.445 72.7169Z" fill="#222745"/>
<path d="M115.407 59.3405C115.407 62.7163 115.526 65.5921 115.354 68.9598C115.229 70.5383 114.835 72.0837 114.188 73.529C113.128 76.0431 111.071 77.6754 108.38 78.4708C104.292 79.7023 99.9322 79.6963 95.8476 78.4535C91.7011 77.2147 89.0295 73.8141 88.8779 68.9314C88.6628 62.0428 89.282 55.6502 89.2876 48.7555C89.2876 47.6486 89.8339 47.1879 91.0188 47.1566C92.1531 47.1247 93.2891 47.1313 94.4239 47.1495C95.9108 47.1732 96.4017 47.6238 96.4158 49.0655C96.4421 51.7738 95.9203 54.4826 95.9209 57.1914C95.9209 60.322 95.8779 62.9479 95.9435 66.0775C95.9656 67.3046 96.1285 68.5252 96.4289 69.7152C96.8279 71.2691 97.8396 72.5323 99.5194 72.8311C101.082 73.133 102.682 73.1884 104.262 72.9954C106.245 72.7123 107.447 71.3055 107.872 69.4472C108.14 68.2466 108.277 67.0204 108.28 65.7902C108.322 60.1971 108.296 55.1096 108.301 49.5165C108.301 47.4569 108.635 47.1485 110.803 47.1439C111.682 47.1439 112.561 47.1343 113.439 47.1469C114.995 47.1697 115.48 47.602 115.51 49.1034C115.546 51.0026 115.52 52.9024 115.521 54.8017C115.521 56.3146 115.521 57.8272 115.521 59.3395L115.407 59.3405Z" fill="#222745"/>
<path d="M32.5454 53.1999L32.664 60.8506C33.0878 60.8647 33.4723 60.8925 33.8571 60.8875C36.639 60.8506 39.4213 60.7939 42.2031 60.7711C43.6279 60.76 44.1152 61.2262 44.1829 62.5769C44.2127 63.1735 44.2106 63.7723 44.2157 64.37C44.2303 66.1676 43.8066 66.6019 41.9015 66.6454C39.3025 66.7041 36.7035 66.7314 34.104 66.7718L32.7834 66.7926C32.7617 67.234 32.7236 67.6016 32.7286 67.9698C32.7711 71.0644 32.8297 73.6534 32.8645 76.7481C32.8832 78.5007 32.4354 78.931 30.6157 78.9821C29.7374 79.0069 28.8585 79.0225 27.9797 79.0225C26.212 79.0225 25.751 78.5978 25.7232 76.9175C25.6222 70.7635 25.5291 65.1153 25.4337 58.9609C25.3832 55.761 25.3276 52.5612 25.2877 49.3609C25.2685 47.7807 25.7145 47.3195 27.3276 47.2917C33.2944 47.1905 39.2612 47.0976 45.2283 47.013C46.8656 46.9903 47.3224 47.4236 47.3774 48.9851C47.4022 49.688 47.4172 50.3919 47.4061 51.0948C47.3843 52.4535 46.9315 52.9415 45.4931 52.9824C42.6385 53.0633 39.7827 53.0871 36.9271 53.1341C35.5069 53.1544 34.0863 53.1756 32.5454 53.1999Z" fill="#222745"/>
<path d="M106.798 18.0322C106.629 18.0325 106.462 18.0738 106.312 18.1526C106.163 18.2314 106.035 18.3454 105.939 18.4847C105.048 19.7893 103.809 21.453 102.135 23.508C100.124 26.0468 97.9494 28.4523 95.627 30.7096C95.444 30.8745 95.2086 30.9689 94.9626 30.9762C94.7166 30.9834 94.476 30.9029 94.2837 30.7491C91.3443 28.423 82.7487 18.9029 82.6058 17.6306C82.6091 17.5996 82.6143 17.5689 82.6218 17.5386C81.7763 17.4461 80.9313 17.3439 80.0884 17.2246C79.9363 17.2016 79.7811 17.2125 79.6336 17.2564C79.4862 17.3003 79.3504 17.3762 79.2356 17.4787C79.1208 17.5812 79.0299 17.7078 78.9695 17.8494C78.9091 17.991 78.8805 18.1443 78.8859 18.2982C78.8994 18.5925 78.9177 18.891 78.9409 19.1937C79.0691 21.6198 79.8408 23.968 81.1764 25.9964C82.9127 28.4308 84.8961 30.6786 87.095 32.7039C88.3622 33.8488 91.1572 36.0413 93.0072 37.4946C93.7325 38.064 94.2907 37.9963 94.5084 38.1773C94.5986 38.2514 94.7117 38.2918 94.8285 38.2918C94.9452 38.2918 95.0585 38.2514 95.1488 38.1773C95.3705 37.9952 95.9456 38.0559 96.6916 37.4784C98.5214 36.0626 101.288 33.9211 102.54 32.8051C104.812 30.7375 106.873 28.4496 108.694 25.9751C110.034 23.951 110.847 21.6242 111.061 19.2058V19.1942C111.079 19.049 111.067 18.9016 111.024 18.7618C110.981 18.6219 110.909 18.4928 110.813 18.3828C110.716 18.2729 110.598 18.1847 110.465 18.1241C110.332 18.0635 110.188 18.0318 110.041 18.0311C108.964 18.0247 107.883 18.0251 106.798 18.0322Z" fill="url(#paint0_linear_5142_2973)"/>
<path d="M106.798 18.0322C106.629 18.0325 106.462 18.0738 106.312 18.1526C106.163 18.2314 106.035 18.3454 105.939 18.4847C105.048 19.7893 103.809 21.453 102.135 23.508C100.124 26.0468 97.9494 28.4523 95.627 30.7096C95.444 30.8745 95.2086 30.9689 94.9626 30.9762C94.7166 30.9834 94.476 30.9029 94.2837 30.7491C91.3443 28.423 82.7487 18.9029 82.6058 17.6306C82.6091 17.5996 82.6143 17.5689 82.6218 17.5386C81.7763 17.4461 80.9313 17.3439 80.0884 17.2246C79.9363 17.2016 79.7811 17.2125 79.6336 17.2564C79.4862 17.3003 79.3504 17.3762 79.2356 17.4787C79.1208 17.5812 79.0299 17.7078 78.9695 17.8494C78.9091 17.991 78.8805 18.1443 78.8859 18.2982C78.8994 18.5925 78.9177 18.891 78.9409 19.1937C79.0691 21.6198 79.8408 23.968 81.1764 25.9964C82.9127 28.4308 84.8961 30.6786 87.095 32.7039C88.3622 33.8488 91.1572 36.0413 93.0072 37.4946C93.7325 38.064 94.2907 37.9963 94.5084 38.1773C94.5986 38.2514 94.7117 38.2918 94.8285 38.2918C94.9452 38.2918 95.0585 38.2514 95.1488 38.1773C95.3705 37.9952 95.9456 38.0559 96.6916 37.4784C98.5214 36.0626 101.288 33.9211 102.54 32.8051C104.812 30.7375 106.873 28.4496 108.694 25.9751C110.034 23.951 110.847 21.6242 111.061 19.2058V19.1942C111.079 19.049 111.067 18.9016 111.024 18.7618C110.981 18.6219 110.909 18.4928 110.813 18.3828C110.716 18.2729 110.598 18.1847 110.465 18.1241C110.332 18.0635 110.188 18.0318 110.041 18.0311C108.964 18.0247 107.883 18.0251 106.798 18.0322Z" fill="url(#paint1_linear_5142_2973)"/>
<path d="M42.9404 3.47384C42.9402 3.09577 42.9194 2.71797 42.8782 2.34215C42.8732 2.0757 42.815 1.81297 42.7069 1.56945C42.5987 1.32594 42.4428 1.10655 42.2487 0.924293C42.0545 0.742031 41.8258 0.600584 41.5762 0.508257C41.3265 0.415929 41.0608 0.374581 40.7949 0.386717C39.8642 0.381324 38.9338 0.380008 38.0035 0.382705C36.9697 0.386245 36.2307 0.488357 35.7434 0.981884C35.2423 1.48754 35.1498 2.25769 35.1584 3.41464C35.1948 8.00606 34.7323 12.5995 34.7747 17.1919L34.7853 18.364L34.2353 17.4366C31.3429 12.5631 28.352 7.5257 25.6494 2.43418C25.1752 1.50325 24.319 0.27244 22.5069 0.402396C21.7826 0.452962 21.0331 0.44083 20.3088 0.431222C19.9513 0.426671 19.5926 0.422163 19.2366 0.424185C18.3936 0.428231 17.5391 0.508104 16.9961 1.05978C16.4532 1.61146 16.3463 2.49791 16.3594 3.73982C16.4099 8.64879 15.9659 13.7575 16.025 18.8156L16.1397 28.9173C16.1462 29.7157 16.1523 30.5354 16.1715 31.3728C16.2144 33.2943 16.9922 34.1539 18.6871 34.1539H18.7917C19.3079 34.1433 19.8245 34.1164 20.3397 34.0896L20.9776 34.0578C23.5797 33.9364 24.0327 33.0323 24.008 30.5465C23.9531 25.7653 23.8946 20.9844 23.8326 16.2038C24.0286 16.5072 24.2234 16.8125 24.4173 17.1196C25.2502 18.4434 27.8484 22.1762 28.5757 23.1613C30.4387 25.6984 32.1175 28.3661 33.5993 31.1437C33.9362 31.7505 34.6358 33.0177 36.0672 33.0182C37.6177 33.0182 39.1266 32.9884 40.5564 32.9257C41.71 32.8751 42.4324 32.1221 42.5374 30.86C42.5677 30.506 42.5819 30.1273 42.5799 29.7384C42.5435 22.6258 43.0079 15.5141 42.9675 8.40202L42.9404 3.47384Z" fill="url(#paint2_linear_5142_2973)"/>
<path d="M42.9404 3.47384C42.9402 3.09577 42.9194 2.71797 42.8782 2.34215C42.8732 2.0757 42.815 1.81297 42.7069 1.56945C42.5987 1.32594 42.4428 1.10655 42.2487 0.924293C42.0545 0.742031 41.8258 0.600584 41.5762 0.508257C41.3265 0.415929 41.0608 0.374581 40.7949 0.386717C39.8642 0.381324 38.9338 0.380008 38.0035 0.382705C36.9697 0.386245 36.2307 0.488357 35.7434 0.981884C35.2423 1.48754 35.1498 2.25769 35.1584 3.41464C35.1948 8.00606 34.7323 12.5995 34.7747 17.1919L34.7853 18.364L34.2353 17.4366C31.3429 12.5631 28.352 7.5257 25.6494 2.43418C25.1752 1.50325 24.319 0.27244 22.5069 0.402396C21.7826 0.452962 21.0331 0.44083 20.3088 0.431222C19.9513 0.426671 19.5926 0.422163 19.2366 0.424185C18.3936 0.428231 17.5391 0.508104 16.9961 1.05978C16.4532 1.61146 16.3463 2.49791 16.3594 3.73982C16.4099 8.64879 15.9659 13.7575 16.025 18.8156L16.1397 28.9173C16.1462 29.7157 16.1523 30.5354 16.1715 31.3728C16.2144 33.2943 16.9922 34.1539 18.6871 34.1539H18.7917C19.3079 34.1433 19.8245 34.1164 20.3397 34.0896L20.9776 34.0578C23.5797 33.9364 24.0327 33.0323 24.008 30.5465C23.9531 25.7653 23.8946 20.9844 23.8326 16.2038C24.0286 16.5072 24.2234 16.8125 24.4173 17.1196C25.2502 18.4434 27.8484 22.1762 28.5757 23.1613C30.4387 25.6984 32.1175 28.3661 33.5993 31.1437C33.9362 31.7505 34.6358 33.0177 36.0672 33.0182C37.6177 33.0182 39.1266 32.9884 40.5564 32.9257C41.71 32.8751 42.4324 32.1221 42.5374 30.86C42.5677 30.506 42.5819 30.1273 42.5799 29.7384C42.5435 22.6258 43.0079 15.5141 42.9675 8.40202L42.9404 3.47384Z" fill="url(#paint3_linear_5142_2973)"/>
<path d="M174.892 14.8603L174.737 3.50262V3.3509C174.739 3.09511 174.728 2.83937 174.703 2.58481C174.541 1.17705 173.873 0.527803 172.537 0.479259C171.751 0.451448 170.958 0.454462 170.191 0.459013L169.628 0.461544C168.702 0.464072 167.987 0.562641 167.515 1.04504C167.043 1.52745 166.95 2.26727 166.963 3.22399C167.031 7.90474 167.102 12.5865 167.177 17.2693L167.197 18.4748C167.063 18.2609 166.933 18.0384 166.798 17.8022C165.408 15.3811 164 13.0369 162.64 10.77C161.111 8.22498 159.531 5.59351 157.986 2.86647C157.558 2.11354 156.913 0.974293 155.46 0.961651C154.019 0.94901 152.345 0.937375 150.703 0.95659C150.442 0.94002 150.181 0.977687 149.936 1.06727C149.692 1.15685 149.468 1.29639 149.28 1.47701C149.091 1.65762 148.942 1.87538 148.843 2.11655C148.743 2.35773 148.694 2.61703 148.699 2.87807C148.676 3.20625 148.678 3.53241 148.682 3.83885C148.749 9.14072 148.814 14.2616 148.88 19.4178L149.014 29.9028C149.017 30.2203 149.027 30.5383 149.052 30.8549C149.058 31.3837 149.273 31.8886 149.649 32.2596C150.025 32.6306 150.533 32.8376 151.061 32.8356C151.807 32.8861 152.559 32.8922 153.283 32.8978L153.805 32.9018C155.04 32.9134 155.802 32.8295 156.288 32.34C156.775 31.8505 156.851 31.1179 156.833 29.9235C156.762 25.0503 156.689 20.1772 156.614 15.3043L156.621 15.3154C159.757 20.5399 163.001 25.9414 166.1 31.3029C166.373 31.8764 166.804 32.3598 167.342 32.696C167.88 33.0322 168.504 33.2072 169.138 33.2002C169.836 33.2002 170.552 33.2355 171.243 33.2679C171.525 33.2815 171.807 33.2947 172.089 33.3064C172.266 33.3134 172.435 33.3175 172.594 33.3175C173.446 33.3175 174.075 33.2007 174.503 32.784C175.021 32.2784 175.113 31.4799 175.097 30.2703C175.033 25.1348 174.964 19.9981 174.892 14.8603Z" fill="url(#paint4_linear_5142_2973)"/>
<path d="M174.892 14.8603L174.737 3.50262V3.3509C174.739 3.09511 174.728 2.83937 174.703 2.58481C174.541 1.17705 173.873 0.527803 172.537 0.479259C171.751 0.451448 170.958 0.454462 170.191 0.459013L169.628 0.461544C168.702 0.464072 167.987 0.562641 167.515 1.04504C167.043 1.52745 166.95 2.26727 166.963 3.22399C167.031 7.90474 167.102 12.5865 167.177 17.2693L167.197 18.4748C167.063 18.2609 166.933 18.0384 166.798 17.8022C165.408 15.3811 164 13.0369 162.64 10.77C161.111 8.22498 159.531 5.59351 157.986 2.86647C157.558 2.11354 156.913 0.974293 155.46 0.961651C154.019 0.94901 152.345 0.937375 150.703 0.95659C150.442 0.94002 150.181 0.977687 149.936 1.06727C149.692 1.15685 149.468 1.29639 149.28 1.47701C149.091 1.65762 148.942 1.87538 148.843 2.11655C148.743 2.35773 148.694 2.61703 148.699 2.87807C148.676 3.20625 148.678 3.53241 148.682 3.83885C148.749 9.14072 148.814 14.2616 148.88 19.4178L149.014 29.9028C149.017 30.2203 149.027 30.5383 149.052 30.8549C149.058 31.3837 149.273 31.8886 149.649 32.2596C150.025 32.6306 150.533 32.8376 151.061 32.8356C151.807 32.8861 152.559 32.8922 153.283 32.8978L153.805 32.9018C155.04 32.9134 155.802 32.8295 156.288 32.34C156.775 31.8505 156.851 31.1179 156.833 29.9235C156.762 25.0503 156.689 20.1772 156.614 15.3043L156.621 15.3154C159.757 20.5399 163.001 25.9414 166.1 31.3029C166.373 31.8764 166.804 32.3598 167.342 32.696C167.88 33.0322 168.504 33.2072 169.138 33.2002C169.836 33.2002 170.552 33.2355 171.243 33.2679C171.525 33.2815 171.807 33.2947 172.089 33.3064C172.266 33.3134 172.435 33.3175 172.594 33.3175C173.446 33.3175 174.075 33.2007 174.503 32.784C175.021 32.2784 175.113 31.4799 175.097 30.2703C175.033 25.1348 174.964 19.9981 174.892 14.8603Z" fill="url(#paint5_linear_5142_2973)"/>
<path d="M70.0736 15.9425C69.9221 15.8763 69.7745 15.8182 69.6189 15.763C70.6863 15.1744 71.5726 14.3046 72.1817 13.2479C73.1089 11.5705 73.444 9.62889 73.1323 7.73725C72.8207 5.84562 71.8807 4.11456 70.4645 2.82414C68.5626 1.25812 66.1669 0.419103 63.7047 0.456622C61.7284 0.438924 59.7203 0.576464 57.7819 0.709454C56.0329 0.830307 54.2238 0.9547 52.4557 0.962285C50.5405 0.970376 49.8618 1.66669 49.8618 3.62411C49.8618 12.856 49.8734 21.3172 49.8966 30.2508C49.8966 30.9284 49.9693 31.7743 50.5077 32.3083C51.0487 32.7444 51.7378 32.953 52.4295 32.8898H52.4951C56.4063 32.8608 60.3177 32.8251 64.2295 32.7826C66.9815 32.7452 69.2159 32.1253 71.0603 30.8854C73.9503 28.9426 75.2837 26.2585 75.0221 22.907C74.9479 21.3941 74.4424 19.9342 73.5654 18.7C72.6884 17.4657 71.4768 16.5089 70.0736 15.9425ZM57.6998 12.9424C57.7028 11.2824 57.7052 9.89786 57.7143 8.14675C57.7196 8.01107 57.7341 7.87589 57.7577 7.74219C58.5153 7.74624 59.273 7.67847 60.0044 7.61071C61.056 7.47015 62.1204 7.45319 63.176 7.56016C65.0073 7.8231 65.3124 9.33558 65.2468 10.5583C65.1589 12.1557 64.1357 13.1619 62.4337 13.3197C61.2667 13.4069 60.0958 13.4347 58.9259 13.4031C58.5391 13.3996 58.1471 13.396 57.7476 13.396H57.7003L57.6998 12.9424ZM57.7501 19.5616C58.3208 19.5555 58.8902 19.5424 59.4584 19.5292C61.127 19.4554 62.7986 19.4819 64.464 19.6086C66.2464 19.78 67.0352 21.2818 67.0256 22.6931C67.052 23.0649 67.0036 23.4382 66.8833 23.7909C66.7629 24.1437 66.573 24.4687 66.3249 24.7466C66.0769 25.0245 65.7757 25.2497 65.4391 25.409C65.1025 25.5682 64.7374 25.6582 64.3654 25.6735C62.7372 25.7984 61.1029 25.8209 59.4719 25.7407C58.8957 25.7251 58.3183 25.7089 57.7375 25.7019L57.7501 19.5616Z" fill="url(#paint6_linear_5142_2973)"/>
<path d="M70.0736 15.9425C69.9221 15.8763 69.7745 15.8182 69.6189 15.763C70.6863 15.1744 71.5726 14.3046 72.1817 13.2479C73.1089 11.5705 73.444 9.62889 73.1323 7.73725C72.8207 5.84562 71.8807 4.11456 70.4645 2.82414C68.5626 1.25812 66.1669 0.419103 63.7047 0.456622C61.7284 0.438924 59.7203 0.576464 57.7819 0.709454C56.0329 0.830307 54.2238 0.9547 52.4557 0.962285C50.5405 0.970376 49.8618 1.66669 49.8618 3.62411C49.8618 12.856 49.8734 21.3172 49.8966 30.2508C49.8966 30.9284 49.9693 31.7743 50.5077 32.3083C51.0487 32.7444 51.7378 32.953 52.4295 32.8898H52.4951C56.4063 32.8608 60.3177 32.8251 64.2295 32.7826C66.9815 32.7452 69.2159 32.1253 71.0603 30.8854C73.9503 28.9426 75.2837 26.2585 75.0221 22.907C74.9479 21.3941 74.4424 19.9342 73.5654 18.7C72.6884 17.4657 71.4768 16.5089 70.0736 15.9425ZM57.6998 12.9424C57.7028 11.2824 57.7052 9.89786 57.7143 8.14675C57.7196 8.01107 57.7341 7.87589 57.7577 7.74219C58.5153 7.74624 59.273 7.67847 60.0044 7.61071C61.056 7.47015 62.1204 7.45319 63.176 7.56016C65.0073 7.8231 65.3124 9.33558 65.2468 10.5583C65.1589 12.1557 64.1357 13.1619 62.4337 13.3197C61.2667 13.4069 60.0958 13.4347 58.9259 13.4031C58.5391 13.3996 58.1471 13.396 57.7476 13.396H57.7003L57.6998 12.9424ZM57.7501 19.5616C58.3208 19.5555 58.8902 19.5424 59.4584 19.5292C61.127 19.4554 62.7986 19.4819 64.464 19.6086C66.2464 19.78 67.0352 21.2818 67.0256 22.6931C67.052 23.0649 67.0036 23.4382 66.8833 23.7909C66.7629 24.1437 66.573 24.4687 66.3249 24.7466C66.0769 25.0245 65.7757 25.2497 65.4391 25.409C65.1025 25.5682 64.7374 25.6582 64.3654 25.6735C62.7372 25.7984 61.1029 25.8209 59.4719 25.7407C58.8957 25.7251 58.3183 25.7089 57.7375 25.7019L57.7501 19.5616Z" fill="url(#paint7_linear_5142_2973)"/>
<path d="M104.971 3.03477C101.138 0.15906 96.4791 -0.170132 93.2533 0.0589335C90.8753 0.22394 88.5666 0.9336 86.5058 2.13313C84.445 3.33265 82.6871 4.99 81.3672 6.97742C79.3999 10.2527 78.5381 14.0752 78.9095 17.879C79.1146 24.0986 82.4582 29.2999 87.6351 31.455C90.0138 32.4547 92.5658 32.975 95.1455 32.9862C98.5716 33.0365 101.923 31.9806 104.703 29.975C109.11 26.8055 111.49 22.2672 111.407 17.1949C111.524 11.8485 108.942 6.16229 104.971 3.03477ZM103.149 16.3079C103.013 19.0218 102.476 20.9701 101.409 22.6186C99.6448 25.3451 97.1069 26.5289 93.8644 26.1365C90.8512 25.7719 88.7284 23.9561 87.5552 20.7401C86.5652 18.0277 86.6537 14.1442 87.7638 11.6988C89.1249 8.57432 91.8911 6.66848 95.0027 6.66848C95.0937 6.66848 95.1851 6.66848 95.277 6.67354C96.9553 6.78654 98.5554 7.42601 99.8501 8.5012C101.145 9.57638 102.068 11.0326 102.489 12.6631C102.69 13.4915 102.849 14.3296 102.965 15.1742C103.023 15.5524 103.083 15.9292 103.149 16.3079Z" fill="url(#paint8_linear_5142_2973)"/>
<path d="M104.971 3.03477C101.138 0.15906 96.4791 -0.170132 93.2533 0.0589335C90.8753 0.22394 88.5666 0.9336 86.5058 2.13313C84.445 3.33265 82.6871 4.99 81.3672 6.97742C79.3999 10.2527 78.5381 14.0752 78.9095 17.879C79.1146 24.0986 82.4582 29.2999 87.6351 31.455C90.0138 32.4547 92.5658 32.975 95.1455 32.9862C98.5716 33.0365 101.923 31.9806 104.703 29.975C109.11 26.8055 111.49 22.2672 111.407 17.1949C111.524 11.8485 108.942 6.16229 104.971 3.03477ZM103.149 16.3079C103.013 19.0218 102.476 20.9701 101.409 22.6186C99.6448 25.3451 97.1069 26.5289 93.8644 26.1365C90.8512 25.7719 88.7284 23.9561 87.5552 20.7401C86.5652 18.0277 86.6537 14.1442 87.7638 11.6988C89.1249 8.57432 91.8911 6.66848 95.0027 6.66848C95.0937 6.66848 95.1851 6.66848 95.277 6.67354C96.9553 6.78654 98.5554 7.42601 99.8501 8.5012C101.145 9.57638 102.068 11.0326 102.489 12.6631C102.69 13.4915 102.849 14.3296 102.965 15.1742C103.023 15.5524 103.083 15.9292 103.149 16.3079Z" fill="url(#paint9_linear_5142_2973)"/>
<path d="M207.854 15.7358C206.945 9.00492 202.545 1.77695 194.773 0.801525C192.091 0.524155 189.394 0.421285 186.699 0.493572C185.89 0.497618 185.091 0.501703 184.297 0.497152C183.354 0.49159 182.599 0.589172 182.111 1.07966C181.606 1.59089 181.507 2.37821 181.518 3.48409C181.562 8.03776 181.611 12.5914 181.663 17.145L181.309 30.8991C181.335 33.1391 181.985 33.8825 184.087 34.0777C185.4 34.1995 186.738 34.3512 188.031 34.4973C189.259 34.6364 190.485 34.775 191.712 34.8928C192.688 34.9864 193.467 35.0526 194.278 35.0526C194.796 35.052 195.313 35.025 195.828 34.9717C198.014 34.7902 200.108 34.011 201.882 32.7192C203.656 31.4274 205.041 29.6725 205.887 27.6461C207.645 23.9392 208.327 19.812 207.854 15.7358ZM198.776 23.3252C197.804 25.8535 195.993 27.2118 193.392 27.3574C192.428 27.3968 191.462 27.364 190.503 27.2593C190.037 27.2199 189.56 27.1794 189.035 27.1501L189.393 7.96321L189.911 7.96679C192.114 7.98095 193.69 7.9946 195.66 9.04132C196.619 9.56477 197.458 10.2836 198.123 11.1516C198.787 12.0196 199.263 13.0174 199.518 14.0807C200.476 16.9529 199.807 20.8788 198.776 23.3252Z" fill="url(#paint10_linear_5142_2973)"/>
<path d="M207.854 15.7358C206.945 9.00492 202.545 1.77695 194.773 0.801525C192.091 0.524155 189.394 0.421285 186.699 0.493572C185.89 0.497618 185.091 0.501703 184.297 0.497152C183.354 0.49159 182.599 0.589172 182.111 1.07966C181.606 1.59089 181.507 2.37821 181.518 3.48409C181.562 8.03776 181.611 12.5914 181.663 17.145L181.309 30.8991C181.335 33.1391 181.985 33.8825 184.087 34.0777C185.4 34.1995 186.738 34.3512 188.031 34.4973C189.259 34.6364 190.485 34.775 191.712 34.8928C192.688 34.9864 193.467 35.0526 194.278 35.0526C194.796 35.052 195.313 35.025 195.828 34.9717C198.014 34.7902 200.108 34.011 201.882 32.7192C203.656 31.4274 205.041 29.6725 205.887 27.6461C207.645 23.9392 208.327 19.812 207.854 15.7358ZM198.776 23.3252C197.804 25.8535 195.993 27.2118 193.392 27.3574C192.428 27.3968 191.462 27.364 190.503 27.2593C190.037 27.2199 189.56 27.1794 189.035 27.1501L189.393 7.96321L189.911 7.96679C192.114 7.98095 193.69 7.9946 195.66 9.04132C196.619 9.56477 197.458 10.2836 198.123 11.1516C198.787 12.0196 199.263 13.0174 199.518 14.0807C200.476 16.9529 199.807 20.8788 198.776 23.3252Z" fill="url(#paint11_linear_5142_2973)"/>
<path d="M142.465 12.857H142.481L142.459 9.6299C142.444 7.35897 142.43 5.10627 142.408 2.88944C142.389 1.11001 141.695 0.44098 139.847 0.420754C138.949 0.41064 138.05 0.411146 137.154 0.420754C135.263 0.437441 134.56 1.12058 134.563 2.94147C134.57 5.56081 134.578 8.17985 134.588 10.7985L134.6 14.7275C134.6 15.3208 134.604 15.9145 134.611 16.5084C134.624 18.1033 134.637 19.7527 134.579 21.3582C134.509 23.2853 133.822 25.6751 130.928 26.116C129.855 26.2599 128.766 26.2389 127.699 26.0538C126.981 25.9792 126.302 25.6897 125.75 25.2229C125.199 24.7561 124.801 24.1337 124.608 23.4371C124.278 22.3321 124.091 21.1891 124.053 20.0364C124.014 18.1235 124.148 16.1661 124.277 14.2719C124.39 12.6108 124.508 10.8931 124.511 9.19405V7.31751C124.511 5.76816 124.511 4.23296 124.494 2.71951C124.476 1.13476 123.766 0.44659 122.12 0.418778C121.288 0.405126 120.453 0.40966 119.623 0.414211H119.425C117.341 0.425841 116.706 1.05435 116.707 3.10431C116.707 5.84854 116.588 8.64488 116.474 11.3466C116.349 14.284 116.222 17.322 116.243 20.3181C116.253 21.8209 116.418 23.3186 116.737 24.7871C117.079 26.55 117.91 28.1806 119.136 29.4922C120.361 30.8037 121.93 31.7431 123.664 32.2027C125.737 32.6442 127.847 32.8835 129.965 32.9172C131.796 32.9108 133.62 32.693 135.401 32.2679C136.761 31.9807 138.025 31.3482 139.07 30.4312C140.116 29.5141 140.908 28.3433 141.372 27.0313C142.002 25.2465 142.375 23.3809 142.479 21.4908C142.59 19.3407 142.547 17.1455 142.505 15.0218C142.488 14.3022 142.474 13.5791 142.465 12.857Z" fill="url(#paint12_linear_5142_2973)"/>
<path d="M142.465 12.857H142.481L142.459 9.6299C142.444 7.35897 142.43 5.10627 142.408 2.88944C142.389 1.11001 141.695 0.44098 139.847 0.420754C138.949 0.41064 138.05 0.411146 137.154 0.420754C135.263 0.437441 134.56 1.12058 134.563 2.94147C134.57 5.56081 134.578 8.17985 134.588 10.7985L134.6 14.7275C134.6 15.3208 134.604 15.9145 134.611 16.5084C134.624 18.1033 134.637 19.7527 134.579 21.3582C134.509 23.2853 133.822 25.6751 130.928 26.116C129.855 26.2599 128.766 26.2389 127.699 26.0538C126.981 25.9792 126.302 25.6897 125.75 25.2229C125.199 24.7561 124.801 24.1337 124.608 23.4371C124.278 22.3321 124.091 21.1891 124.053 20.0364C124.014 18.1235 124.148 16.1661 124.277 14.2719C124.39 12.6108 124.508 10.8931 124.511 9.19405V7.31751C124.511 5.76816 124.511 4.23296 124.494 2.71951C124.476 1.13476 123.766 0.44659 122.12 0.418778C121.288 0.405126 120.453 0.40966 119.623 0.414211H119.425C117.341 0.425841 116.706 1.05435 116.707 3.10431C116.707 5.84854 116.588 8.64488 116.474 11.3466C116.349 14.284 116.222 17.322 116.243 20.3181C116.253 21.8209 116.418 23.3186 116.737 24.7871C117.079 26.55 117.91 28.1806 119.136 29.4922C120.361 30.8037 121.93 31.7431 123.664 32.2027C125.737 32.6442 127.847 32.8835 129.965 32.9172C131.796 32.9108 133.62 32.693 135.401 32.2679C136.761 31.9807 138.025 31.3482 139.07 30.4312C140.116 29.5141 140.908 28.3433 141.372 27.0313C142.002 25.2465 142.375 23.3809 142.479 21.4908C142.59 19.3407 142.547 17.1455 142.505 15.0218C142.488 14.3022 142.474 13.5791 142.465 12.857Z" fill="url(#paint13_linear_5142_2973)"/>
<path d="M9.01 19.8047C9.00596 19.2651 8.99906 18.7271 8.99249 18.1896C8.97785 17.0701 8.96304 15.4085 8.97819 14.2546L8.98534 13.7281H8.93479L8.91506 10.8777C8.8989 8.45261 8.88076 6.02764 8.86056 3.60282C8.84389 1.81682 8.41013 0.705869 6.30051 0.687665C5.40303 0.68008 3.49494 0.683086 2.59644 0.696739C0.440362 0.730619 0.00536969 1.90477 0.00334946 3.78837C0.000319133 6.11678 -0.000619954 8.44639 0.000390157 10.7771L0.252918 16.6256C0.252918 17.1702 0.522043 20.5349 0.4978 21.6928L0.486703 22.2304H0.537258V23.8753C0.534901 26.765 0.536466 29.6546 0.54219 32.5439C0.545725 33.7469 0.749829 34.4492 1.22357 34.8922C1.66926 35.265 2.24387 35.4467 2.82258 35.3978C2.9443 35.3978 3.07523 35.3933 3.20705 35.3847C4.13736 35.3235 5.56961 35.2532 6.49336 35.1754C8.67217 34.9928 9.10343 32.8154 9.09434 30.993C9.0802 28.3494 9.06096 26.7151 9.04379 24.0695L9.01 19.8047Z" fill="url(#paint14_linear_5142_2973)"/>
<path d="M9.01 19.8047C9.00596 19.2651 8.99906 18.7271 8.99249 18.1896C8.97785 17.0701 8.96304 15.4085 8.97819 14.2546L8.98534 13.7281H8.93479L8.91506 10.8777C8.8989 8.45261 8.88076 6.02764 8.86056 3.60282C8.84389 1.81682 8.41013 0.705869 6.30051 0.687665C5.40303 0.68008 3.49494 0.683086 2.59644 0.696739C0.440362 0.730619 0.00536969 1.90477 0.00334946 3.78837C0.000319133 6.11678 -0.000619954 8.44639 0.000390157 10.7771L0.252918 16.6256C0.252918 17.1702 0.522043 20.5349 0.4978 21.6928L0.486703 22.2304H0.537258V23.8753C0.534901 26.765 0.536466 29.6546 0.54219 32.5439C0.545725 33.7469 0.749829 34.4492 1.22357 34.8922C1.66926 35.265 2.24387 35.4467 2.82258 35.3978C2.9443 35.3978 3.07523 35.3933 3.20705 35.3847C4.13736 35.3235 5.56961 35.2532 6.49336 35.1754C8.67217 34.9928 9.10343 32.8154 9.09434 30.993C9.0802 28.3494 9.06096 26.7151 9.04379 24.0695L9.01 19.8047Z" fill="url(#paint15_linear_5142_2973)"/>
<path d="M90.1924 31.8574C91.1489 36.0291 93.5191 38.431 94.7191 38.431C95.9191 38.431 99.3369 36.0291 100.293 31.8574H90.1924Z" fill="url(#paint16_linear_5142_2973)"/>
<path d="M90.1924 31.8574C91.1489 36.0291 93.5191 38.431 94.7191 38.431C95.9191 38.431 99.3369 36.0291 100.293 31.8574H90.1924Z" fill="url(#paint17_linear_5142_2973)"/>
</g>
<defs>
<linearGradient id="paint0_linear_5142_2973" x1="91.7594" y1="31.7059" x2="100.243" y2="35.2012" gradientUnits="userSpaceOnUse">
<stop stop-color="white"/>
<stop offset="1" stop-color="white"/>
</linearGradient>
<linearGradient id="paint1_linear_5142_2973" x1="17.1366" y1="-16.7762" x2="164.621" y2="79.9053" gradientUnits="userSpaceOnUse">
<stop stop-color="#FF2B64"/>
<stop offset="1" stop-color="#FF7538"/>
</linearGradient>
<linearGradient id="paint2_linear_5142_2973" x1="91.7598" y1="31.7061" x2="100.243" y2="35.2014" gradientUnits="userSpaceOnUse">
<stop stop-color="white"/>
<stop offset="1" stop-color="white"/>
</linearGradient>
<linearGradient id="paint3_linear_5142_2973" x1="17.137" y1="-16.776" x2="164.621" y2="79.9055" gradientUnits="userSpaceOnUse">
<stop stop-color="#FF2B64"/>
<stop offset="1" stop-color="#FF7538"/>
</linearGradient>
<linearGradient id="paint4_linear_5142_2973" x1="91.7598" y1="31.7061" x2="100.243" y2="35.2014" gradientUnits="userSpaceOnUse">
<stop stop-color="white"/>
<stop offset="1" stop-color="white"/>
</linearGradient>
<linearGradient id="paint5_linear_5142_2973" x1="17.137" y1="-16.776" x2="164.621" y2="79.9055" gradientUnits="userSpaceOnUse">
<stop stop-color="#FF2B64"/>
<stop offset="1" stop-color="#FF7538"/>
</linearGradient>
<linearGradient id="paint6_linear_5142_2973" x1="91.7596" y1="31.7061" x2="100.243" y2="35.2014" gradientUnits="userSpaceOnUse">
<stop stop-color="white"/>
<stop offset="1" stop-color="white"/>
</linearGradient>
<linearGradient id="paint7_linear_5142_2973" x1="17.1368" y1="-16.776" x2="164.621" y2="79.9055" gradientUnits="userSpaceOnUse">
<stop stop-color="#FF2B64"/>
<stop offset="1" stop-color="#FF7538"/>
</linearGradient>
<linearGradient id="paint8_linear_5142_2973" x1="91.7594" y1="31.7059" x2="100.243" y2="35.2012" gradientUnits="userSpaceOnUse">
<stop stop-color="white"/>
<stop offset="1" stop-color="white"/>
</linearGradient>
<linearGradient id="paint9_linear_5142_2973" x1="17.1366" y1="-16.7762" x2="164.621" y2="79.9053" gradientUnits="userSpaceOnUse">
<stop stop-color="#FF2B64"/>
<stop offset="1" stop-color="#FF7538"/>
</linearGradient>
<linearGradient id="paint10_linear_5142_2973" x1="91.7597" y1="31.7057" x2="100.243" y2="35.201" gradientUnits="userSpaceOnUse">
<stop stop-color="white"/>
<stop offset="1" stop-color="white"/>
</linearGradient>
<linearGradient id="paint11_linear_5142_2973" x1="17.1369" y1="-16.7764" x2="164.621" y2="79.9051" gradientUnits="userSpaceOnUse">
<stop stop-color="#FF2B64"/>
<stop offset="1" stop-color="#FF7538"/>
</linearGradient>
<linearGradient id="paint12_linear_5142_2973" x1="91.7596" y1="31.7061" x2="100.243" y2="35.2014" gradientUnits="userSpaceOnUse">
<stop stop-color="white"/>
<stop offset="1" stop-color="white"/>
</linearGradient>
<linearGradient id="paint13_linear_5142_2973" x1="17.1368" y1="-16.776" x2="164.621" y2="79.9056" gradientUnits="userSpaceOnUse">
<stop stop-color="#FF2B64"/>
<stop offset="1" stop-color="#FF7538"/>
</linearGradient>
<linearGradient id="paint14_linear_5142_2973" x1="91.7596" y1="31.706" x2="100.243" y2="35.2013" gradientUnits="userSpaceOnUse">
<stop stop-color="white"/>
<stop offset="1" stop-color="white"/>
</linearGradient>
<linearGradient id="paint15_linear_5142_2973" x1="17.1368" y1="-16.7761" x2="164.621" y2="79.9054" gradientUnits="userSpaceOnUse">
<stop stop-color="#FF2B64"/>
<stop offset="1" stop-color="#FF7538"/>
</linearGradient>
<linearGradient id="paint16_linear_5142_2973" x1="91.7597" y1="31.7057" x2="100.243" y2="35.201" gradientUnits="userSpaceOnUse">
<stop stop-color="white"/>
<stop offset="1" stop-color="white"/>
</linearGradient>
<linearGradient id="paint17_linear_5142_2973" x1="17.1369" y1="-16.7764" x2="164.621" y2="79.9051" gradientUnits="userSpaceOnUse">
<stop stop-color="#FF2B64"/>
<stop offset="1" stop-color="#FF7538"/>
</linearGradient>
<clipPath id="clip0_5142_2973">
<rect width="208" height="80" fill="white"/>
</clipPath>
</defs>
</svg>
