<svg width="208" height="80" viewBox="0 0 208 80" fill="none" xmlns="http://www.w3.org/2000/svg">
<path d="M142.142 66.3439C142.113 63.0065 142.088 60.1708 142.058 56.8314C142.037 54.5089 142.008 52.1869 142.001 49.8649C141.996 48.0819 142.492 47.6076 144.321 47.5813C145.273 47.5671 146.225 47.552 147.177 47.5586C148.696 47.5697 149.206 48.0491 149.224 49.5372C149.27 53.2665 149.291 56.4906 149.325 60.2198C149.374 65.7791 149.423 71.3382 149.471 76.8971C149.487 78.812 149.022 79.2697 147.047 79.3005C145.948 79.3172 144.848 79.2874 143.751 79.3395C143.157 79.3994 142.558 79.2801 142.032 78.9968C141.506 78.7135 141.077 78.2792 140.799 77.7497C137.453 72.2637 134.564 67.3082 131.183 61.8425C130.998 61.5101 130.73 61.2321 130.404 61.0365L130.414 62.1292C130.459 67.2658 130.504 72.4026 130.549 77.5398C130.565 79.5119 130.111 79.9473 128.029 79.9751C127.113 79.9877 126.197 80.0166 125.282 79.9877C123.902 79.9442 123.377 79.435 123.349 78.0895C123.307 76.1174 123.305 74.1488 123.288 72.1788C123.223 64.8254 123.158 57.4719 123.093 50.1182C123.076 48.1664 123.482 47.7715 125.51 47.7482C126.719 47.734 127.93 47.7694 129.136 47.7037C129.694 47.6436 130.257 47.7569 130.749 48.0283C131.24 48.2997 131.636 48.716 131.884 49.2207C135.188 54.8507 138.024 59.9579 141.357 65.5723C141.53 65.8635 141.723 66.1442 141.906 66.4319L142.142 66.3439Z" fill="url(#paint0_linear_5089_358)"/>
<path d="M50.4746 63.1825C50.6125 57.8842 51.453 53.4075 55.4293 50.0353C59.5202 46.5639 64.4036 45.6436 69.684 46.4243C77.4992 47.5798 82.3153 53.4914 83.0209 60.4706C83.5188 65.3922 82.6471 69.9422 79.3723 73.8636C76.5904 77.1949 72.8421 78.8757 68.4633 79.2509C64.6627 79.5766 61.0031 79.0679 57.688 77.1201C53.2985 74.5412 51.5069 70.6582 50.7619 65.8539C50.6028 64.8486 50.5408 63.8297 50.4746 63.1825ZM58.8981 67.65C60.245 71.1295 62.4025 73.1941 66.3323 73.2942C70.0879 73.3898 72.8856 71.6812 74.4603 68.3893C75.359 66.619 75.8196 64.6585 75.8036 62.6727C75.7876 60.6869 75.2954 58.7341 74.3683 56.9785C72.8208 53.9096 70.196 52.2359 66.5757 52.2485C62.9555 52.2612 60.9193 53.9678 59.2875 57.0018C58.3253 58.7898 57.0496 61.7929 58.8981 67.65Z" fill="url(#paint1_linear_5089_358)"/>
<path d="M164.483 46.2807C167.167 46.576 169.396 46.6271 172.02 47.1863C175.182 47.792 178.05 49.4432 180.164 51.8752C182.278 54.3072 183.515 57.3793 183.677 60.5991C183.904 64.0881 183.569 67.4836 181.945 70.6739C179.763 74.9619 176.129 77.4392 171.332 78.3736C170.066 78.6524 168.773 78.7913 167.477 78.7878C164.365 78.7781 161.252 78.6568 158.14 78.5476C156.589 78.4935 156.038 77.962 156.077 76.5431C156.335 67.0802 156.606 57.6177 156.89 48.1557C156.932 46.7515 157.475 46.2949 158.968 46.3232C160.8 46.3576 162.63 46.4243 164.461 46.4749L164.483 46.2807ZM163.445 72.7168C165.503 72.6859 166.988 72.8083 168.922 72.562C170.332 72.4306 171.678 71.908 172.807 71.0529C173.937 70.1979 174.806 69.0443 175.317 67.7219C176.538 64.8012 176.695 61.5434 175.759 58.5188C174.951 55.7852 173.151 53.7893 170.295 53.0854C168.135 52.553 166.344 52.558 164.029 52.3022L163.445 72.7168Z" fill="url(#paint2_linear_5089_358)"/>
<path d="M115.407 59.3404C115.407 62.7162 115.526 65.592 115.354 68.9597C115.229 70.5382 114.835 72.0836 114.188 73.5289C113.128 76.043 111.071 77.6753 108.38 78.4707C104.292 79.7022 99.932 79.6962 95.8474 78.4534C91.7009 77.2146 89.0293 73.814 88.8777 68.9313C88.6626 62.0427 89.2818 55.6501 89.2874 48.7554C89.2874 47.6485 89.8337 47.1878 91.0186 47.1565C92.1529 47.1246 93.2889 47.1312 94.4237 47.1494C95.9106 47.1731 96.4015 47.6237 96.4156 49.0654C96.4419 51.7737 95.9201 54.4825 95.9207 57.1913C95.9207 60.3219 95.8777 62.9478 95.9433 66.0774C95.9654 67.3045 96.1283 68.5251 96.4287 69.7151C96.8277 71.269 97.8394 72.5322 99.5192 72.831C101.082 73.1329 102.682 73.1883 104.262 72.9953C106.245 72.7122 107.447 71.3054 107.872 69.4471C108.14 68.2465 108.277 67.0203 108.28 65.7901C108.322 60.197 108.296 55.1095 108.301 49.5164C108.301 47.4568 108.635 47.1484 110.803 47.1438C111.682 47.1438 112.561 47.1342 113.439 47.1468C114.995 47.1696 115.48 47.6019 115.51 49.1033C115.546 51.0025 115.52 52.9023 115.521 54.8016C115.521 56.3145 115.521 57.8271 115.521 59.3394L115.407 59.3404Z" fill="url(#paint3_linear_5089_358)"/>
<path d="M32.5454 53.1998L32.664 60.8505C33.0878 60.8646 33.4723 60.8924 33.8571 60.8874C36.639 60.8505 39.4213 60.7938 42.2031 60.771C43.6279 60.7599 44.1152 61.2261 44.1829 62.5768C44.2127 63.1734 44.2106 63.7722 44.2157 64.3699C44.2303 66.1675 43.8066 66.6018 41.9015 66.6453C39.3025 66.704 36.7035 66.7313 34.104 66.7717L32.7834 66.7925C32.7617 67.2339 32.7236 67.6015 32.7286 67.9697C32.7711 71.0643 32.8297 73.6533 32.8645 76.748C32.8832 78.5006 32.4354 78.9309 30.6157 78.982C29.7374 79.0068 28.8585 79.0224 27.9797 79.0224C26.212 79.0224 25.751 78.5977 25.7232 76.9174C25.6222 70.7634 25.5291 65.1152 25.4337 58.9608C25.3832 55.7609 25.3276 52.5611 25.2877 49.3608C25.2685 47.7806 25.7145 47.3194 27.3276 47.2916C33.2944 47.1904 39.2612 47.0975 45.2283 47.0129C46.8656 46.9902 47.3224 47.4235 47.3774 48.985C47.4022 49.6879 47.4172 50.3918 47.4061 51.0947C47.3843 52.4534 46.9315 52.9414 45.4931 52.9823C42.6385 53.0632 39.7827 53.087 36.9271 53.134C35.5069 53.1543 34.0863 53.1755 32.5454 53.1998Z" fill="url(#paint4_linear_5089_358)"/>
<path d="M106.798 18.0322C106.629 18.0325 106.462 18.0738 106.312 18.1526C106.163 18.2314 106.035 18.3454 105.939 18.4847C105.048 19.7893 103.809 21.453 102.135 23.508C100.124 26.0468 97.9496 28.4523 95.6272 30.7096C95.4442 30.8745 95.2088 30.9689 94.9628 30.9762C94.7168 30.9834 94.4762 30.9029 94.2839 30.7491C91.3445 28.423 82.7489 18.9029 82.606 17.6306C82.6093 17.5996 82.6145 17.5689 82.622 17.5386C81.7765 17.4461 80.9315 17.3439 80.0886 17.2246C79.9365 17.2016 79.7813 17.2125 79.6338 17.2564C79.4864 17.3003 79.3506 17.3762 79.2358 17.4787C79.121 17.5812 79.0301 17.7078 78.9697 17.8494C78.9093 17.991 78.8807 18.1443 78.8861 18.2982C78.8996 18.5925 78.9179 18.891 78.9411 19.1937C79.0693 21.6198 79.841 23.968 81.1766 25.9964C82.9129 28.4308 84.8963 30.6786 87.0952 32.7039C88.3624 33.8488 91.1574 36.0413 93.0074 37.4946C93.7327 38.064 94.2909 37.9963 94.5086 38.1773C94.5988 38.2514 94.7119 38.2918 94.8287 38.2918C94.9454 38.2918 95.0587 38.2514 95.149 38.1773C95.3707 37.9952 95.9458 38.0559 96.6918 37.4784C98.5216 36.0626 101.288 33.9211 102.54 32.8051C104.812 30.7375 106.873 28.4496 108.694 25.9751C110.034 23.951 110.847 21.6242 111.061 19.2058V19.1942C111.079 19.049 111.067 18.9016 111.024 18.7618C110.981 18.6219 110.909 18.4928 110.813 18.3828C110.716 18.2729 110.598 18.1847 110.465 18.1241C110.332 18.0635 110.188 18.0318 110.041 18.0311C108.964 18.0247 107.883 18.0251 106.798 18.0322Z" fill="url(#paint5_linear_5089_358)"/>
<path d="M106.798 18.0322C106.629 18.0325 106.462 18.0738 106.312 18.1526C106.163 18.2314 106.035 18.3454 105.939 18.4847C105.048 19.7893 103.809 21.453 102.135 23.508C100.124 26.0468 97.9496 28.4523 95.6272 30.7096C95.4442 30.8745 95.2088 30.9689 94.9628 30.9762C94.7168 30.9834 94.4762 30.9029 94.2839 30.7491C91.3445 28.423 82.7489 18.9029 82.606 17.6306C82.6093 17.5996 82.6145 17.5689 82.622 17.5386C81.7765 17.4461 80.9315 17.3439 80.0886 17.2246C79.9365 17.2016 79.7813 17.2125 79.6338 17.2564C79.4864 17.3003 79.3506 17.3762 79.2358 17.4787C79.121 17.5812 79.0301 17.7078 78.9697 17.8494C78.9093 17.991 78.8807 18.1443 78.8861 18.2982C78.8996 18.5925 78.9179 18.891 78.9411 19.1937C79.0693 21.6198 79.841 23.968 81.1766 25.9964C82.9129 28.4308 84.8963 30.6786 87.0952 32.7039C88.3624 33.8488 91.1574 36.0413 93.0074 37.4946C93.7327 38.064 94.2909 37.9963 94.5086 38.1773C94.5988 38.2514 94.7119 38.2918 94.8287 38.2918C94.9454 38.2918 95.0587 38.2514 95.149 38.1773C95.3707 37.9952 95.9458 38.0559 96.6918 37.4784C98.5216 36.0626 101.288 33.9211 102.54 32.8051C104.812 30.7375 106.873 28.4496 108.694 25.9751C110.034 23.951 110.847 21.6242 111.061 19.2058V19.1942C111.079 19.049 111.067 18.9016 111.024 18.7618C110.981 18.6219 110.909 18.4928 110.813 18.3828C110.716 18.2729 110.598 18.1847 110.465 18.1241C110.332 18.0635 110.188 18.0318 110.041 18.0311C108.964 18.0247 107.883 18.0251 106.798 18.0322Z" fill="url(#paint6_linear_5089_358)"/>
<path d="M42.9402 3.47362C42.94 3.09555 42.9192 2.71775 42.878 2.34193C42.873 2.07548 42.8148 1.81275 42.7067 1.56923C42.5985 1.32572 42.4426 1.10633 42.2485 0.924069C42.0543 0.741807 41.8256 0.60036 41.576 0.508033C41.3263 0.415705 41.0606 0.374357 40.7947 0.386493C39.864 0.3811 38.9336 0.379784 38.0033 0.382481C36.9695 0.386021 36.2305 0.488133 35.7432 0.98166C35.2421 1.48732 35.1496 2.25747 35.1582 3.41442C35.1946 8.00584 34.7321 12.5993 34.7745 17.1917L34.7851 18.3638L34.2351 17.4364C31.3427 12.5629 28.3518 7.52548 25.6492 2.43396C25.175 1.50303 24.3188 0.272216 22.5067 0.402172C21.7824 0.452738 21.0329 0.440606 20.3086 0.430998C19.9511 0.426447 19.5924 0.421939 19.2364 0.423961C18.3934 0.428007 17.5389 0.50788 16.9959 1.05956C16.453 1.61124 16.3461 2.49769 16.3592 3.7396C16.4097 8.64857 15.9657 13.7573 16.0248 18.8154L16.1395 28.9171C16.146 29.7155 16.1521 30.5352 16.1713 31.3726C16.2142 33.2941 16.992 34.1537 18.6869 34.1537H18.7915C19.3077 34.1431 19.8243 34.1162 20.3395 34.0894L20.9774 34.0576C23.5795 33.9362 24.0325 33.0321 24.0078 30.5463C23.9529 25.7651 23.8944 20.9842 23.8324 16.2036C24.0284 16.507 24.2232 16.8123 24.4171 17.1194C25.25 18.4432 27.8482 22.176 28.5755 23.1611C30.4385 25.6982 32.1173 28.3659 33.5991 31.1435C33.936 31.7503 34.6356 33.0175 36.067 33.018C37.6175 33.018 39.1264 32.9882 40.5562 32.9255C41.7098 32.8749 42.4322 32.1219 42.5372 30.8598C42.5675 30.5058 42.5817 30.1271 42.5797 29.7382C42.5433 22.6256 43.0077 15.5139 42.9673 8.4018L42.9402 3.47362Z" fill="url(#paint7_linear_5089_358)"/>
<path d="M42.9402 3.47362C42.94 3.09555 42.9192 2.71775 42.878 2.34193C42.873 2.07548 42.8148 1.81275 42.7067 1.56923C42.5985 1.32572 42.4426 1.10633 42.2485 0.924069C42.0543 0.741807 41.8256 0.60036 41.576 0.508033C41.3263 0.415705 41.0606 0.374357 40.7947 0.386493C39.864 0.3811 38.9336 0.379784 38.0033 0.382481C36.9695 0.386021 36.2305 0.488133 35.7432 0.98166C35.2421 1.48732 35.1496 2.25747 35.1582 3.41442C35.1946 8.00584 34.7321 12.5993 34.7745 17.1917L34.7851 18.3638L34.2351 17.4364C31.3427 12.5629 28.3518 7.52548 25.6492 2.43396C25.175 1.50303 24.3188 0.272216 22.5067 0.402172C21.7824 0.452738 21.0329 0.440606 20.3086 0.430998C19.9511 0.426447 19.5924 0.421939 19.2364 0.423961C18.3934 0.428007 17.5389 0.50788 16.9959 1.05956C16.453 1.61124 16.3461 2.49769 16.3592 3.7396C16.4097 8.64857 15.9657 13.7573 16.0248 18.8154L16.1395 28.9171C16.146 29.7155 16.1521 30.5352 16.1713 31.3726C16.2142 33.2941 16.992 34.1537 18.6869 34.1537H18.7915C19.3077 34.1431 19.8243 34.1162 20.3395 34.0894L20.9774 34.0576C23.5795 33.9362 24.0325 33.0321 24.0078 30.5463C23.9529 25.7651 23.8944 20.9842 23.8324 16.2036C24.0284 16.507 24.2232 16.8123 24.4171 17.1194C25.25 18.4432 27.8482 22.176 28.5755 23.1611C30.4385 25.6982 32.1173 28.3659 33.5991 31.1435C33.936 31.7503 34.6356 33.0175 36.067 33.018C37.6175 33.018 39.1264 32.9882 40.5562 32.9255C41.7098 32.8749 42.4322 32.1219 42.5372 30.8598C42.5675 30.5058 42.5817 30.1271 42.5797 29.7382C42.5433 22.6256 43.0077 15.5139 42.9673 8.4018L42.9402 3.47362Z" fill="url(#paint8_linear_5089_358)"/>
<path d="M174.892 14.8601L174.737 3.5024V3.35068C174.739 3.09489 174.728 2.83915 174.703 2.58459C174.541 1.17683 173.873 0.527584 172.537 0.47904C171.751 0.451229 170.958 0.454243 170.191 0.458794L169.628 0.461325C168.702 0.463853 167.987 0.562422 167.515 1.04482C167.043 1.52723 166.95 2.26705 166.963 3.22377C167.031 7.90452 167.102 12.5863 167.177 17.2691L167.197 18.4746C167.063 18.2607 166.933 18.0382 166.798 17.802C165.408 15.3809 164 13.0367 162.64 10.7698C161.111 8.22476 159.531 5.59329 157.986 2.86625C157.558 2.11332 156.913 0.974074 155.46 0.961432C154.019 0.948791 152.345 0.937156 150.703 0.956371C150.442 0.939801 150.181 0.977468 149.936 1.06705C149.692 1.15663 149.468 1.29617 149.28 1.47679C149.091 1.6574 148.942 1.87516 148.843 2.11633C148.743 2.35751 148.694 2.61681 148.699 2.87785C148.676 3.20603 148.678 3.53219 148.682 3.83863C148.749 9.1405 148.814 14.2614 148.88 19.4176L149.014 29.9026C149.017 30.2201 149.027 30.5381 149.052 30.8547C149.058 31.3835 149.273 31.8884 149.649 32.2594C150.025 32.6304 150.533 32.8374 151.061 32.8354C151.807 32.8859 152.559 32.892 153.283 32.8976L153.805 32.9016C155.04 32.9132 155.802 32.8293 156.288 32.3398C156.775 31.8503 156.851 31.1177 156.833 29.9233C156.762 25.0501 156.689 20.177 156.614 15.3041L156.621 15.3152C159.757 20.5397 163.001 25.9412 166.1 31.3027C166.373 31.8762 166.804 32.3596 167.342 32.6958C167.88 33.032 168.504 33.207 169.138 33.2C169.836 33.2 170.552 33.2353 171.243 33.2677C171.525 33.2813 171.807 33.2945 172.089 33.3062C172.266 33.3132 172.435 33.3173 172.594 33.3173C173.446 33.3173 174.075 33.2005 174.503 32.7838C175.021 32.2782 175.113 31.4797 175.097 30.2701C175.033 25.1346 174.964 19.9979 174.892 14.8601Z" fill="url(#paint9_linear_5089_358)"/>
<path d="M174.892 14.8601L174.737 3.5024V3.35068C174.739 3.09489 174.728 2.83915 174.703 2.58459C174.541 1.17683 173.873 0.527584 172.537 0.47904C171.751 0.451229 170.958 0.454243 170.191 0.458794L169.628 0.461325C168.702 0.463853 167.987 0.562422 167.515 1.04482C167.043 1.52723 166.95 2.26705 166.963 3.22377C167.031 7.90452 167.102 12.5863 167.177 17.2691L167.197 18.4746C167.063 18.2607 166.933 18.0382 166.798 17.802C165.408 15.3809 164 13.0367 162.64 10.7698C161.111 8.22476 159.531 5.59329 157.986 2.86625C157.558 2.11332 156.913 0.974074 155.46 0.961432C154.019 0.948791 152.345 0.937156 150.703 0.956371C150.442 0.939801 150.181 0.977468 149.936 1.06705C149.692 1.15663 149.468 1.29617 149.28 1.47679C149.091 1.6574 148.942 1.87516 148.843 2.11633C148.743 2.35751 148.694 2.61681 148.699 2.87785C148.676 3.20603 148.678 3.53219 148.682 3.83863C148.749 9.1405 148.814 14.2614 148.88 19.4176L149.014 29.9026C149.017 30.2201 149.027 30.5381 149.052 30.8547C149.058 31.3835 149.273 31.8884 149.649 32.2594C150.025 32.6304 150.533 32.8374 151.061 32.8354C151.807 32.8859 152.559 32.892 153.283 32.8976L153.805 32.9016C155.04 32.9132 155.802 32.8293 156.288 32.3398C156.775 31.8503 156.851 31.1177 156.833 29.9233C156.762 25.0501 156.689 20.177 156.614 15.3041L156.621 15.3152C159.757 20.5397 163.001 25.9412 166.1 31.3027C166.373 31.8762 166.804 32.3596 167.342 32.6958C167.88 33.032 168.504 33.207 169.138 33.2C169.836 33.2 170.552 33.2353 171.243 33.2677C171.525 33.2813 171.807 33.2945 172.089 33.3062C172.266 33.3132 172.435 33.3173 172.594 33.3173C173.446 33.3173 174.075 33.2005 174.503 32.7838C175.021 32.2782 175.113 31.4797 175.097 30.2701C175.033 25.1346 174.964 19.9979 174.892 14.8601Z" fill="url(#paint10_linear_5089_358)"/>
<path d="M70.0736 15.9423C69.9221 15.8761 69.7745 15.818 69.6189 15.7628C70.6863 15.1742 71.5726 14.3044 72.1817 13.2477C73.1089 11.5703 73.444 9.62868 73.1323 7.73704C72.8207 5.84541 71.8807 4.11435 70.4645 2.82393C68.5626 1.25791 66.1669 0.41889 63.7047 0.456409C61.7284 0.438711 59.7203 0.576251 57.7819 0.709241C56.0329 0.830094 54.2238 0.954487 52.4557 0.962072C50.5405 0.970163 49.8618 1.66648 49.8618 3.6239C49.8618 12.8558 49.8734 21.317 49.8966 30.2506C49.8966 30.9282 49.9693 31.7741 50.5077 32.3081C51.0487 32.7442 51.7378 32.9528 52.4295 32.8896H52.4951C56.4063 32.8606 60.3177 32.8249 64.2295 32.7824C66.9815 32.745 69.2159 32.1251 71.0603 30.8852C73.9503 28.9424 75.2837 26.2583 75.0221 22.9068C74.9479 21.3939 74.4424 19.934 73.5654 18.6998C72.6884 17.4655 71.4768 16.5087 70.0736 15.9423ZM57.6998 12.9422C57.7028 11.2822 57.7052 9.89765 57.7143 8.14654C57.7196 8.01086 57.7341 7.87568 57.7577 7.74198C58.5153 7.74603 59.273 7.67826 60.0044 7.6105C61.056 7.46994 62.1204 7.45298 63.176 7.55995C65.0073 7.82289 65.3124 9.33537 65.2468 10.5581C65.1589 12.1555 64.1357 13.1617 62.4337 13.3195C61.2667 13.4067 60.0958 13.4345 58.9259 13.4029C58.5391 13.3994 58.1471 13.3958 57.7476 13.3958H57.7003L57.6998 12.9422ZM57.7501 19.5614C58.3208 19.5553 58.8902 19.5422 59.4584 19.529C61.127 19.4552 62.7986 19.4817 64.464 19.6084C66.2464 19.7798 67.0352 21.2816 67.0256 22.6929C67.052 23.0647 67.0036 23.438 66.8833 23.7907C66.7629 24.1435 66.573 24.4685 66.3249 24.7464C66.0769 25.0243 65.7757 25.2495 65.4391 25.4088C65.1025 25.568 64.7374 25.658 64.3654 25.6733C62.7372 25.7982 61.1029 25.8207 59.4719 25.7405C58.8957 25.7249 58.3183 25.7087 57.7375 25.7017L57.7501 19.5614Z" fill="url(#paint11_linear_5089_358)"/>
<path d="M70.0736 15.9423C69.9221 15.8761 69.7745 15.818 69.6189 15.7628C70.6863 15.1742 71.5726 14.3044 72.1817 13.2477C73.1089 11.5703 73.444 9.62868 73.1323 7.73704C72.8207 5.84541 71.8807 4.11435 70.4645 2.82393C68.5626 1.25791 66.1669 0.41889 63.7047 0.456409C61.7284 0.438711 59.7203 0.576251 57.7819 0.709241C56.0329 0.830094 54.2238 0.954487 52.4557 0.962072C50.5405 0.970163 49.8618 1.66648 49.8618 3.6239C49.8618 12.8558 49.8734 21.317 49.8966 30.2506C49.8966 30.9282 49.9693 31.7741 50.5077 32.3081C51.0487 32.7442 51.7378 32.9528 52.4295 32.8896H52.4951C56.4063 32.8606 60.3177 32.8249 64.2295 32.7824C66.9815 32.745 69.2159 32.1251 71.0603 30.8852C73.9503 28.9424 75.2837 26.2583 75.0221 22.9068C74.9479 21.3939 74.4424 19.934 73.5654 18.6998C72.6884 17.4655 71.4768 16.5087 70.0736 15.9423ZM57.6998 12.9422C57.7028 11.2822 57.7052 9.89765 57.7143 8.14654C57.7196 8.01086 57.7341 7.87568 57.7577 7.74198C58.5153 7.74603 59.273 7.67826 60.0044 7.6105C61.056 7.46994 62.1204 7.45298 63.176 7.55995C65.0073 7.82289 65.3124 9.33537 65.2468 10.5581C65.1589 12.1555 64.1357 13.1617 62.4337 13.3195C61.2667 13.4067 60.0958 13.4345 58.9259 13.4029C58.5391 13.3994 58.1471 13.3958 57.7476 13.3958H57.7003L57.6998 12.9422ZM57.7501 19.5614C58.3208 19.5553 58.8902 19.5422 59.4584 19.529C61.127 19.4552 62.7986 19.4817 64.464 19.6084C66.2464 19.7798 67.0352 21.2816 67.0256 22.6929C67.052 23.0647 67.0036 23.438 66.8833 23.7907C66.7629 24.1435 66.573 24.4685 66.3249 24.7464C66.0769 25.0243 65.7757 25.2495 65.4391 25.4088C65.1025 25.568 64.7374 25.658 64.3654 25.6733C62.7372 25.7982 61.1029 25.8207 59.4719 25.7405C58.8957 25.7249 58.3183 25.7087 57.7375 25.7017L57.7501 19.5614Z" fill="url(#paint12_linear_5089_358)"/>
<path d="M104.971 3.03477C101.138 0.15906 96.4793 -0.170132 93.2535 0.0589335C90.8755 0.22394 88.5668 0.9336 86.506 2.13313C84.4452 3.33265 82.6873 4.99 81.3674 6.97742C79.4001 10.2527 78.5383 14.0752 78.9097 17.879C79.1148 24.0986 82.4584 29.2999 87.6353 31.455C90.014 32.4547 92.566 32.975 95.1457 32.9862C98.5718 33.0365 101.923 31.9806 104.703 29.975C109.11 26.8055 111.49 22.2672 111.407 17.1949C111.524 11.8485 108.942 6.16229 104.971 3.03477ZM103.149 16.3079C103.013 19.0218 102.476 20.9701 101.409 22.6186C99.645 25.3451 97.1071 26.5289 93.8646 26.1365C90.8514 25.7719 88.7286 23.9561 87.5554 20.7401C86.5654 18.0277 86.6539 14.1442 87.764 11.6988C89.1251 8.57432 91.8913 6.66848 95.0029 6.66848C95.0939 6.66848 95.1853 6.66848 95.2772 6.67354C96.9555 6.78654 98.5556 7.42601 99.8503 8.5012C101.145 9.57638 102.068 11.0326 102.489 12.6631C102.69 13.4915 102.849 14.3296 102.965 15.1742C103.023 15.5524 103.083 15.9292 103.149 16.3079Z" fill="url(#paint13_linear_5089_358)"/>
<path d="M104.971 3.03477C101.138 0.15906 96.4793 -0.170132 93.2535 0.0589335C90.8755 0.22394 88.5668 0.9336 86.506 2.13313C84.4452 3.33265 82.6873 4.99 81.3674 6.97742C79.4001 10.2527 78.5383 14.0752 78.9097 17.879C79.1148 24.0986 82.4584 29.2999 87.6353 31.455C90.014 32.4547 92.566 32.975 95.1457 32.9862C98.5718 33.0365 101.923 31.9806 104.703 29.975C109.11 26.8055 111.49 22.2672 111.407 17.1949C111.524 11.8485 108.942 6.16229 104.971 3.03477ZM103.149 16.3079C103.013 19.0218 102.476 20.9701 101.409 22.6186C99.645 25.3451 97.1071 26.5289 93.8646 26.1365C90.8514 25.7719 88.7286 23.9561 87.5554 20.7401C86.5654 18.0277 86.6539 14.1442 87.764 11.6988C89.1251 8.57432 91.8913 6.66848 95.0029 6.66848C95.0939 6.66848 95.1853 6.66848 95.2772 6.67354C96.9555 6.78654 98.5556 7.42601 99.8503 8.5012C101.145 9.57638 102.068 11.0326 102.489 12.6631C102.69 13.4915 102.849 14.3296 102.965 15.1742C103.023 15.5524 103.083 15.9292 103.149 16.3079Z" fill="url(#paint14_linear_5089_358)"/>
<path d="M207.854 15.736C206.945 9.00509 202.545 1.77712 194.773 0.801693C192.091 0.524323 189.394 0.421453 186.699 0.49374C185.89 0.497786 185.091 0.501871 184.297 0.49732C183.354 0.491758 182.599 0.58934 182.111 1.07983C181.606 1.59106 181.507 2.37838 181.518 3.48426C181.562 8.03793 181.611 12.5916 181.663 17.1452L181.309 30.8993C181.335 33.1393 181.985 33.8827 184.087 34.0779C185.4 34.1997 186.738 34.3514 188.031 34.4975C189.259 34.6366 190.485 34.7752 191.712 34.893C192.688 34.9866 193.467 35.0528 194.278 35.0528C194.796 35.0522 195.313 35.0252 195.828 34.9719C198.014 34.7904 200.108 34.0112 201.882 32.7194C203.656 31.4276 205.041 29.6727 205.887 27.6463C207.645 23.9394 208.327 19.8122 207.854 15.736ZM198.776 23.3254C197.804 25.8537 195.993 27.212 193.392 27.3576C192.428 27.397 191.462 27.3642 190.503 27.2595C190.037 27.2201 189.56 27.1796 189.035 27.1503L189.393 7.96338L189.911 7.96696C192.114 7.98112 193.69 7.99477 195.66 9.04149C196.619 9.56494 197.458 10.2838 198.123 11.1518C198.787 12.0198 199.263 13.0176 199.518 14.0809C200.476 16.9531 199.807 20.879 198.776 23.3254Z" fill="url(#paint15_linear_5089_358)"/>
<path d="M207.854 15.736C206.945 9.00509 202.545 1.77712 194.773 0.801693C192.091 0.524323 189.394 0.421453 186.699 0.49374C185.89 0.497786 185.091 0.501871 184.297 0.49732C183.354 0.491758 182.599 0.58934 182.111 1.07983C181.606 1.59106 181.507 2.37838 181.518 3.48426C181.562 8.03793 181.611 12.5916 181.663 17.1452L181.309 30.8993C181.335 33.1393 181.985 33.8827 184.087 34.0779C185.4 34.1997 186.738 34.3514 188.031 34.4975C189.259 34.6366 190.485 34.7752 191.712 34.893C192.688 34.9866 193.467 35.0528 194.278 35.0528C194.796 35.0522 195.313 35.0252 195.828 34.9719C198.014 34.7904 200.108 34.0112 201.882 32.7194C203.656 31.4276 205.041 29.6727 205.887 27.6463C207.645 23.9394 208.327 19.8122 207.854 15.736ZM198.776 23.3254C197.804 25.8537 195.993 27.212 193.392 27.3576C192.428 27.397 191.462 27.3642 190.503 27.2595C190.037 27.2201 189.56 27.1796 189.035 27.1503L189.393 7.96338L189.911 7.96696C192.114 7.98112 193.69 7.99477 195.66 9.04149C196.619 9.56494 197.458 10.2838 198.123 11.1518C198.787 12.0198 199.263 13.0176 199.518 14.0809C200.476 16.9531 199.807 20.879 198.776 23.3254Z" fill="url(#paint16_linear_5089_358)"/>
<path d="M142.465 12.8568H142.481L142.459 9.62969C142.444 7.35876 142.43 5.10606 142.408 2.88923C142.389 1.1098 141.695 0.440768 139.847 0.420542C138.949 0.410428 138.05 0.410934 137.154 0.420542C135.263 0.437229 134.56 1.12037 134.563 2.94126C134.57 5.5606 134.578 8.17964 134.588 10.7983L134.6 14.7273C134.6 15.3206 134.604 15.9143 134.611 16.5082C134.624 18.1031 134.637 19.7525 134.579 21.358C134.509 23.2851 133.822 25.6749 130.928 26.1158C129.855 26.2597 128.766 26.2387 127.699 26.0536C126.981 25.979 126.302 25.6895 125.75 25.2227C125.199 24.7559 124.801 24.1335 124.608 23.4369C124.278 22.3319 124.091 21.1889 124.053 20.0362C124.014 18.1233 124.148 16.1659 124.277 14.2717C124.39 12.6106 124.508 10.8929 124.511 9.19384V7.3173C124.511 5.76795 124.511 4.23275 124.494 2.7193C124.476 1.13455 123.766 0.446378 122.12 0.418566C121.288 0.404914 120.453 0.409448 119.623 0.413999H119.425C117.341 0.425629 116.706 1.05414 116.707 3.1041C116.707 5.84833 116.588 8.64467 116.474 11.3464C116.349 14.2838 116.222 17.3218 116.243 20.3179C116.253 21.8207 116.418 23.3184 116.737 24.7869C117.079 26.5498 117.91 28.1804 119.136 29.492C120.361 30.8035 121.93 31.7429 123.664 32.2025C125.737 32.644 127.847 32.8833 129.965 32.917C131.796 32.9106 133.62 32.6928 135.401 32.2677C136.761 31.9805 138.025 31.348 139.07 30.431C140.116 29.5139 140.908 28.3431 141.372 27.0311C142.002 25.2463 142.375 23.3807 142.479 21.4906C142.59 19.3405 142.547 17.1453 142.505 15.0216C142.488 14.302 142.474 13.5789 142.465 12.8568Z" fill="url(#paint17_linear_5089_358)"/>
<path d="M142.465 12.8568H142.481L142.459 9.62969C142.444 7.35876 142.43 5.10606 142.408 2.88923C142.389 1.1098 141.695 0.440768 139.847 0.420542C138.949 0.410428 138.05 0.410934 137.154 0.420542C135.263 0.437229 134.56 1.12037 134.563 2.94126C134.57 5.5606 134.578 8.17964 134.588 10.7983L134.6 14.7273C134.6 15.3206 134.604 15.9143 134.611 16.5082C134.624 18.1031 134.637 19.7525 134.579 21.358C134.509 23.2851 133.822 25.6749 130.928 26.1158C129.855 26.2597 128.766 26.2387 127.699 26.0536C126.981 25.979 126.302 25.6895 125.75 25.2227C125.199 24.7559 124.801 24.1335 124.608 23.4369C124.278 22.3319 124.091 21.1889 124.053 20.0362C124.014 18.1233 124.148 16.1659 124.277 14.2717C124.39 12.6106 124.508 10.8929 124.511 9.19384V7.3173C124.511 5.76795 124.511 4.23275 124.494 2.7193C124.476 1.13455 123.766 0.446378 122.12 0.418566C121.288 0.404914 120.453 0.409448 119.623 0.413999H119.425C117.341 0.425629 116.706 1.05414 116.707 3.1041C116.707 5.84833 116.588 8.64467 116.474 11.3464C116.349 14.2838 116.222 17.3218 116.243 20.3179C116.253 21.8207 116.418 23.3184 116.737 24.7869C117.079 26.5498 117.91 28.1804 119.136 29.492C120.361 30.8035 121.93 31.7429 123.664 32.2025C125.737 32.644 127.847 32.8833 129.965 32.917C131.796 32.9106 133.62 32.6928 135.401 32.2677C136.761 31.9805 138.025 31.348 139.07 30.431C140.116 29.5139 140.908 28.3431 141.372 27.0311C142.002 25.2463 142.375 23.3807 142.479 21.4906C142.59 19.3405 142.547 17.1453 142.505 15.0216C142.488 14.302 142.474 13.5789 142.465 12.8568Z" fill="url(#paint18_linear_5089_358)"/>
<path d="M9.01 19.8046C9.00596 19.265 8.99906 18.727 8.99249 18.1895C8.97785 17.07 8.96304 15.4084 8.97819 14.2545L8.98534 13.728H8.93479L8.91506 10.8776C8.8989 8.45248 8.88076 6.02751 8.86056 3.60269C8.84389 1.81669 8.41013 0.705737 6.30051 0.687533C5.40303 0.679948 3.49494 0.682954 2.59644 0.696607C0.440362 0.730487 0.00536969 1.90464 0.00334946 3.78824C0.000319133 6.11665 -0.000619954 8.44626 0.000390157 10.777L0.252918 16.6255C0.252918 17.1701 0.522043 20.5348 0.4978 21.6927L0.486703 22.2303H0.537258V23.8752C0.534901 26.7649 0.536466 29.6545 0.54219 32.5438C0.545725 33.7468 0.749829 34.4491 1.22357 34.8921C1.66926 35.2649 2.24387 35.4466 2.82258 35.3977C2.9443 35.3977 3.07523 35.3932 3.20705 35.3846C4.13736 35.3234 5.56961 35.2531 6.49336 35.1753C8.67217 34.9927 9.10343 32.8153 9.09434 30.9929C9.0802 28.3493 9.06096 26.715 9.04379 24.0694L9.01 19.8046Z" fill="url(#paint19_linear_5089_358)"/>
<path d="M9.01 19.8046C9.00596 19.265 8.99906 18.727 8.99249 18.1895C8.97785 17.07 8.96304 15.4084 8.97819 14.2545L8.98534 13.728H8.93479L8.91506 10.8776C8.8989 8.45248 8.88076 6.02751 8.86056 3.60269C8.84389 1.81669 8.41013 0.705737 6.30051 0.687533C5.40303 0.679948 3.49494 0.682954 2.59644 0.696607C0.440362 0.730487 0.00536969 1.90464 0.00334946 3.78824C0.000319133 6.11665 -0.000619954 8.44626 0.000390157 10.777L0.252918 16.6255C0.252918 17.1701 0.522043 20.5348 0.4978 21.6927L0.486703 22.2303H0.537258V23.8752C0.534901 26.7649 0.536466 29.6545 0.54219 32.5438C0.545725 33.7468 0.749829 34.4491 1.22357 34.8921C1.66926 35.2649 2.24387 35.4466 2.82258 35.3977C2.9443 35.3977 3.07523 35.3932 3.20705 35.3846C4.13736 35.3234 5.56961 35.2531 6.49336 35.1753C8.67217 34.9927 9.10343 32.8153 9.09434 30.9929C9.0802 28.3493 9.06096 26.715 9.04379 24.0694L9.01 19.8046Z" fill="url(#paint20_linear_5089_358)"/>
<path d="M90.1923 31.8576C91.1488 36.0293 93.519 38.4312 94.719 38.4312C95.919 38.4312 99.3368 36.0293 100.293 31.8576H90.1923Z" fill="url(#paint21_linear_5089_358)"/>
<path d="M90.1923 31.8576C91.1488 36.0293 93.519 38.4312 94.719 38.4312C95.919 38.4312 99.3368 36.0293 100.293 31.8576H90.1923Z" fill="url(#paint22_linear_5089_358)"/>
<defs>
<linearGradient id="paint0_linear_5089_358" x1="91.7592" y1="31.706" x2="100.243" y2="35.2013" gradientUnits="userSpaceOnUse">
<stop stop-color="white"/>
<stop offset="1" stop-color="white"/>
</linearGradient>
<linearGradient id="paint1_linear_5089_358" x1="91.7592" y1="31.706" x2="100.243" y2="35.2013" gradientUnits="userSpaceOnUse">
<stop stop-color="white"/>
<stop offset="1" stop-color="white"/>
</linearGradient>
<linearGradient id="paint2_linear_5089_358" x1="91.7592" y1="31.706" x2="100.243" y2="35.2013" gradientUnits="userSpaceOnUse">
<stop stop-color="white"/>
<stop offset="1" stop-color="white"/>
</linearGradient>
<linearGradient id="paint3_linear_5089_358" x1="91.7592" y1="31.706" x2="100.243" y2="35.2013" gradientUnits="userSpaceOnUse">
<stop stop-color="white"/>
<stop offset="1" stop-color="white"/>
</linearGradient>
<linearGradient id="paint4_linear_5089_358" x1="91.7592" y1="31.706" x2="100.243" y2="35.2013" gradientUnits="userSpaceOnUse">
<stop stop-color="white"/>
<stop offset="1" stop-color="white"/>
</linearGradient>
<linearGradient id="paint5_linear_5089_358" x1="91.7596" y1="31.7059" x2="100.243" y2="35.2012" gradientUnits="userSpaceOnUse">
<stop stop-color="white"/>
<stop offset="1" stop-color="white"/>
</linearGradient>
<linearGradient id="paint6_linear_5089_358" x1="17.1368" y1="-16.7762" x2="164.621" y2="79.9053" gradientUnits="userSpaceOnUse">
<stop stop-color="#FF2B64"/>
<stop offset="1" stop-color="#FF7538"/>
</linearGradient>
<linearGradient id="paint7_linear_5089_358" x1="91.7596" y1="31.7059" x2="100.243" y2="35.2012" gradientUnits="userSpaceOnUse">
<stop stop-color="white"/>
<stop offset="1" stop-color="white"/>
</linearGradient>
<linearGradient id="paint8_linear_5089_358" x1="17.1368" y1="-16.7762" x2="164.621" y2="79.9053" gradientUnits="userSpaceOnUse">
<stop stop-color="#FF2B64"/>
<stop offset="1" stop-color="#FF7538"/>
</linearGradient>
<linearGradient id="paint9_linear_5089_358" x1="91.7596" y1="31.7059" x2="100.243" y2="35.2012" gradientUnits="userSpaceOnUse">
<stop stop-color="white"/>
<stop offset="1" stop-color="white"/>
</linearGradient>
<linearGradient id="paint10_linear_5089_358" x1="17.1368" y1="-16.7762" x2="164.621" y2="79.9053" gradientUnits="userSpaceOnUse">
<stop stop-color="#FF2B64"/>
<stop offset="1" stop-color="#FF7538"/>
</linearGradient>
<linearGradient id="paint11_linear_5089_358" x1="91.7596" y1="31.7059" x2="100.243" y2="35.2012" gradientUnits="userSpaceOnUse">
<stop stop-color="white"/>
<stop offset="1" stop-color="white"/>
</linearGradient>
<linearGradient id="paint12_linear_5089_358" x1="17.1368" y1="-16.7762" x2="164.621" y2="79.9053" gradientUnits="userSpaceOnUse">
<stop stop-color="#FF2B64"/>
<stop offset="1" stop-color="#FF7538"/>
</linearGradient>
<linearGradient id="paint13_linear_5089_358" x1="91.7596" y1="31.7059" x2="100.243" y2="35.2012" gradientUnits="userSpaceOnUse">
<stop stop-color="white"/>
<stop offset="1" stop-color="white"/>
</linearGradient>
<linearGradient id="paint14_linear_5089_358" x1="17.1368" y1="-16.7762" x2="164.621" y2="79.9053" gradientUnits="userSpaceOnUse">
<stop stop-color="#FF2B64"/>
<stop offset="1" stop-color="#FF7538"/>
</linearGradient>
<linearGradient id="paint15_linear_5089_358" x1="91.7596" y1="31.7059" x2="100.243" y2="35.2012" gradientUnits="userSpaceOnUse">
<stop stop-color="white"/>
<stop offset="1" stop-color="white"/>
</linearGradient>
<linearGradient id="paint16_linear_5089_358" x1="17.1368" y1="-16.7762" x2="164.621" y2="79.9053" gradientUnits="userSpaceOnUse">
<stop stop-color="#FF2B64"/>
<stop offset="1" stop-color="#FF7538"/>
</linearGradient>
<linearGradient id="paint17_linear_5089_358" x1="91.7596" y1="31.7059" x2="100.243" y2="35.2012" gradientUnits="userSpaceOnUse">
<stop stop-color="white"/>
<stop offset="1" stop-color="white"/>
</linearGradient>
<linearGradient id="paint18_linear_5089_358" x1="17.1368" y1="-16.7762" x2="164.621" y2="79.9053" gradientUnits="userSpaceOnUse">
<stop stop-color="#FF2B64"/>
<stop offset="1" stop-color="#FF7538"/>
</linearGradient>
<linearGradient id="paint19_linear_5089_358" x1="91.7596" y1="31.7059" x2="100.243" y2="35.2012" gradientUnits="userSpaceOnUse">
<stop stop-color="white"/>
<stop offset="1" stop-color="white"/>
</linearGradient>
<linearGradient id="paint20_linear_5089_358" x1="17.1368" y1="-16.7762" x2="164.621" y2="79.9053" gradientUnits="userSpaceOnUse">
<stop stop-color="#FF2B64"/>
<stop offset="1" stop-color="#FF7538"/>
</linearGradient>
<linearGradient id="paint21_linear_5089_358" x1="91.7596" y1="31.7059" x2="100.243" y2="35.2012" gradientUnits="userSpaceOnUse">
<stop stop-color="white"/>
<stop offset="1" stop-color="white"/>
</linearGradient>
<linearGradient id="paint22_linear_5089_358" x1="17.1368" y1="-16.7762" x2="164.621" y2="79.9053" gradientUnits="userSpaceOnUse">
<stop stop-color="#FF2B64"/>
<stop offset="1" stop-color="#FF7538"/>
</linearGradient>
</defs>
</svg>
