<svg width="309" height="47" viewBox="0 0 309 47" fill="none" xmlns="http://www.w3.org/2000/svg">
<path d="M19.9058 46.1903C15.8183 46.1903 12.2808 45.3563 9.29305 43.6883C6.32367 42.0204 4.03249 39.6467 2.41949 36.5673C0.806497 33.488 0 29.8404 0 25.6246C0 21.4088 0.806497 17.7613 2.41949 14.6819C4.03249 11.6026 6.32367 9.2289 9.29305 7.56091C12.2808 5.89293 15.8183 5.05894 19.9058 5.05894C24.8365 5.05894 28.9423 6.26869 32.2232 8.68818C35.5225 11.1077 37.6763 14.4803 38.6844 18.8061L27.3843 21.418C27.036 19.2368 26.2112 17.5688 24.9098 16.4141C23.6084 15.2593 21.9404 14.6819 19.9058 14.6819C18.1462 14.6819 16.6523 15.1127 15.4243 15.9741C14.2145 16.8173 13.2889 18.0545 12.6473 19.6859C12.0241 21.3172 11.7125 23.2968 11.7125 25.6246C11.7125 27.9525 12.0241 29.9412 12.6473 31.5909C13.2889 33.2222 14.2145 34.4686 15.4243 35.3301C16.6523 36.1732 18.1462 36.5948 19.9058 36.5948C21.7571 36.5948 23.2693 36.1091 24.4424 35.1376C25.6155 34.1478 26.4953 32.7181 27.0818 30.8485L38.5744 32.9106C37.5113 37.0897 35.3484 40.3524 32.0858 42.6985C28.8415 45.0264 24.7815 46.1903 19.9058 46.1903Z" fill="#1874FF"/>
<path d="M43.0285 45.4205V15.7267H54.0262V45.4205H43.0285ZM48.5273 13.3072C46.4378 13.3072 44.8064 12.7207 43.6334 11.5476C42.4603 10.3745 41.8737 8.74317 41.8737 6.6536C41.8737 4.56404 42.4603 2.93272 43.6334 1.75963C44.8064 0.586544 46.4378 0 48.5273 0C50.6169 0 52.2482 0.586544 53.4213 1.75963C54.5944 2.93272 55.1809 4.56404 55.1809 6.6536C55.1809 8.74317 54.5944 10.3745 53.4213 11.5476C52.2482 12.7207 50.6169 13.3072 48.5273 13.3072Z" fill="#1874FF"/>
<path d="M70.9626 45.4205C67.9383 45.4205 65.7204 44.7698 64.309 43.4684C62.8976 42.167 62.192 40.1874 62.192 37.5296V23.4251H58.3703V15.7267H62.192V10.2004L73.1897 7.45094V15.7267H78.3586V23.4251H73.1897V36.1824C73.1897 36.8056 73.2721 37.218 73.4371 37.4197C73.6204 37.6213 73.9961 37.7221 74.5644 37.7221H79.1009V45.4205H70.9626Z" fill="#1874FF"/>
<path d="M93.123 46.1628C91.29 46.1628 89.5212 45.8695 87.8166 45.283C86.1119 44.6965 84.7097 43.7433 83.61 42.4236C82.5102 41.0856 81.9603 39.3076 81.9603 37.0897C81.9603 34.6886 82.6477 32.7548 84.0224 31.2884C85.4154 29.8037 87.34 28.7223 89.7962 28.0441C92.2523 27.3659 95.1026 27.0268 98.3469 27.0268H101.921L101.426 27.9891V26.202C101.426 24.5707 101.16 23.4068 100.629 22.7102C100.116 21.9954 99.2633 21.638 98.0719 21.638C96.8988 21.638 96.0099 21.9587 95.405 22.6003C94.8184 23.2235 94.3877 24.1858 94.1128 25.4872L83.3075 23.8375C83.7108 22.1512 84.4898 20.639 85.6445 19.301C86.7993 17.9446 88.4306 16.8723 90.5385 16.0841C92.6647 15.296 95.3683 14.9019 98.6493 14.9019C101.435 14.9019 103.855 15.296 105.908 16.0841C107.961 16.854 109.546 18.247 110.664 20.2633C111.801 22.2612 112.369 25.1114 112.369 28.814V36.1824C112.369 36.8056 112.451 37.218 112.616 37.4197C112.8 37.6213 113.175 37.7221 113.744 37.7221H114.816V45.4205H110.142C107.319 45.4205 105.239 44.7698 103.901 43.4684C102.581 42.1487 101.921 40.1691 101.921 37.5296V36.6773L103.956 37.6396C103.754 38.4461 103.452 39.3351 103.048 40.3065C102.663 41.278 102.077 42.2128 101.289 43.111C100.519 43.9908 99.4741 44.724 98.1544 45.3105C96.8347 45.8787 95.1575 46.1628 93.123 46.1628ZM96.5048 39.2068C97.6045 39.2068 98.521 38.9777 99.2542 38.5194C100.006 38.0429 100.574 37.383 100.959 36.5398C101.344 35.6967 101.536 34.7161 101.536 33.598V32.6357H99.0067C97.4304 32.6357 96.2115 32.8464 95.35 33.268C94.5068 33.6713 93.9203 34.1662 93.5904 34.7527C93.2788 35.3209 93.123 35.8708 93.123 36.4024C93.123 36.659 93.1871 37.0164 93.3154 37.4746C93.4621 37.9145 93.7737 38.3178 94.2502 38.6844C94.7268 39.0326 95.4783 39.2068 96.5048 39.2068Z" fill="#1874FF"/>
<path d="M129.14 45.4205C126.116 45.4205 123.898 44.7698 122.487 43.4684C121.075 42.167 120.37 40.1874 120.37 37.5296V23.4251H116.548V15.7267H120.37V10.2004L131.367 7.45094V15.7267H136.536V23.4251H131.367V36.1824C131.367 36.8056 131.45 37.218 131.615 37.4197C131.798 37.6213 132.174 37.7221 132.742 37.7221H137.279V45.4205H129.14Z" fill="#1874FF"/>
<path d="M142.283 45.4205V15.7267H153.28V45.4205H142.283ZM147.781 13.3072C145.692 13.3072 144.061 12.7207 142.888 11.5476C141.714 10.3745 141.128 8.74317 141.128 6.6536C141.128 4.56404 141.714 2.93272 142.888 1.75963C144.061 0.586544 145.692 0 147.781 0C149.871 0 151.502 0.586544 152.675 1.75963C153.849 2.93272 154.435 4.56404 154.435 6.6536C154.435 8.74317 153.849 10.3745 152.675 11.5476C151.502 12.7207 149.871 13.3072 147.781 13.3072Z" fill="#1874FF"/>
<path d="M173.984 46.1903C170.831 46.1903 168.054 45.5305 165.653 44.2107C163.252 42.891 161.373 41.0581 160.016 38.7119C158.678 36.3474 158.009 33.6346 158.009 30.5736C158.009 27.4942 158.678 24.7815 160.016 22.4353C161.373 20.0891 163.252 18.2562 165.653 16.9364C168.054 15.6167 170.831 14.9569 173.984 14.9569C177.155 14.9569 179.941 15.6167 182.342 16.9364C184.743 18.2562 186.622 20.0891 187.978 22.4353C189.334 24.7815 190.013 27.4942 190.013 30.5736C190.013 33.6529 189.334 36.3657 187.978 38.7119C186.622 41.0581 184.734 42.891 182.314 44.2107C179.913 45.5305 177.136 46.1903 173.984 46.1903ZM174.011 38.4369C175.459 38.4369 176.595 37.7313 177.42 36.3199C178.263 34.9085 178.685 32.9931 178.685 30.5736C178.685 28.1541 178.263 26.2387 177.42 24.8273C176.595 23.4159 175.459 22.7102 174.011 22.7102C172.563 22.7102 171.417 23.4159 170.574 24.8273C169.749 26.2387 169.337 28.1541 169.337 30.5736C169.337 33.0114 169.749 34.936 170.574 36.3474C171.417 37.7404 172.563 38.4369 174.011 38.4369Z" fill="#1874FF"/>
<path d="M194.714 45.4205V15.7267H205.437V22.6827L205.217 21.4455C206.207 19.2826 207.499 17.6605 209.094 16.579C210.707 15.4976 212.65 14.9569 214.922 14.9569C217.379 14.9569 219.321 15.5251 220.751 16.6615C222.199 17.7979 223.235 19.3376 223.858 21.2805C224.481 23.2235 224.793 25.3955 224.793 27.7967V45.4205H213.795V28.4565C213.795 26.6053 213.566 25.2305 213.108 24.3324C212.65 23.4343 211.788 22.9852 210.523 22.9852C208.837 22.9852 207.609 23.81 206.839 25.4597C206.088 27.091 205.712 29.7121 205.712 33.323V45.4205H194.714Z" fill="#1874FF"/>
<path d="M249.29 46.1903C245.148 46.1903 241.564 45.3655 238.54 43.7158C235.516 42.0478 233.188 39.6742 231.556 36.5948C229.925 33.5155 229.109 29.8587 229.109 25.6246C229.109 21.3905 229.925 17.7429 231.556 14.6819C233.188 11.6026 235.516 9.2289 238.54 7.56091C241.564 5.89293 245.148 5.05894 249.29 5.05894C253.451 5.05894 257.034 5.89293 260.04 7.56091C263.065 9.2289 265.393 11.6026 267.024 14.6819C268.655 17.7429 269.471 21.3905 269.471 25.6246C269.471 29.8587 268.655 33.5155 267.024 36.5948C265.393 39.6742 263.065 42.0478 260.04 43.7158C257.034 45.3655 253.451 46.1903 249.29 46.1903ZM249.29 36.5673C251.105 36.5673 252.645 36.1458 253.909 35.3026C255.174 34.4411 256.127 33.1947 256.769 31.5634C257.429 29.9321 257.758 27.9525 257.758 25.6246C257.758 23.2785 257.429 21.2989 256.769 19.6859C256.127 18.0545 255.174 16.8173 253.909 15.9741C252.645 15.1127 251.105 14.6819 249.29 14.6819C247.476 14.6819 245.936 15.1127 244.671 15.9741C243.425 16.8173 242.472 18.0545 241.812 19.6859C241.152 21.2989 240.822 23.2785 240.822 25.6246C240.822 27.9525 241.152 29.9321 241.812 31.5634C242.472 33.1947 243.425 34.4411 244.671 35.3026C245.936 36.1458 247.476 36.5673 249.29 36.5673Z" fill="#CFCFCF"/>
<path d="M290.642 46.1903C287.745 46.1903 284.969 45.7871 282.311 44.9806C279.653 44.1557 277.408 42.8543 275.575 41.0764C273.742 39.2801 272.596 36.9339 272.138 34.0379L283.328 31.7833C283.493 33.6713 284.153 35.0277 285.308 35.8525C286.462 36.659 288.149 37.0622 290.367 37.0622C291.998 37.0622 293.217 36.8973 294.023 36.5673C294.83 36.2374 295.361 35.8433 295.618 35.3851C295.893 34.9085 296.03 34.4594 296.03 34.0379C296.03 33.0297 295.517 32.2232 294.491 31.6184C293.464 30.9952 292.19 30.5644 290.669 30.3261L287.59 29.8312C285.885 29.5563 284.217 29.1714 282.586 28.6765C280.954 28.1633 279.479 27.4667 278.159 26.5869C276.839 25.6888 275.785 24.5432 274.997 23.1501C274.227 21.7388 273.843 20.0066 273.843 17.9537C273.843 15.3143 274.512 13.0323 275.85 11.1077C277.188 9.18307 279.076 7.69839 281.513 6.6536C283.951 5.59049 286.82 5.05894 290.119 5.05894C293.015 5.05894 295.7 5.48968 298.175 6.35117C300.649 7.19432 302.73 8.45906 304.416 10.1454C306.102 11.8134 307.193 13.8846 307.688 16.3591L296.745 18.6411C296.562 17.7796 296.287 17.0189 295.92 16.3591C295.554 15.6809 294.986 15.1493 294.216 14.7644C293.446 14.3795 292.346 14.187 290.916 14.187C289.523 14.187 288.46 14.3612 287.727 14.7094C286.994 15.0393 286.49 15.4426 286.215 15.9192C285.958 16.3774 285.83 16.8173 285.83 17.2389C285.83 18.3387 286.517 19.1452 287.892 19.6584C289.267 20.1533 290.926 20.5565 292.869 20.8681L296.085 21.3905C298.028 21.7021 299.916 22.2887 301.749 23.1501C303.6 24.0116 305.122 25.258 306.313 26.8894C307.505 28.5024 308.1 30.6102 308.1 33.213C308.1 36.0724 307.331 38.4644 305.791 40.389C304.27 42.3136 302.189 43.7617 299.55 44.7331C296.929 45.7046 293.959 46.1903 290.642 46.1903Z" fill="#CFCFCF"/>
</svg>
